<?xml version="1.0" encoding="UTF-8"?>
<svg id="uuid-6aa45469-b6ab-4e00-86fd-2744d8c44cbd" data-name="Capa 2" xmlns="http://www.w3.org/2000/svg" viewBox="0 0 47.88 65.84">
  <defs>
    <style>
      .uuid-ed9e0505-7511-4be2-967e-f1a33ebdabed {
        fill: #eae8fc;
      }

      .uuid-8133d6d3-6d98-4cd4-84e9-560e5a2dfe4c {
        fill: #fff;
      }

      .uuid-c6084f18-8581-45e1-ab4b-51adffe49a2a {
        fill: #c0c0f3;
      }

      .uuid-050e4a00-276d-477c-a444-20ea4d17ce8d {
        fill: #dbd7fc;
      }

      .uuid-20dd5abf-499a-464b-ada3-c593f0fbd4b6 {
        fill: #473d61;
      }
    </style>
  </defs>
  <g id="uuid-cfbdf654-3e02-4c10-a1fa-795d87ec31d5" data-name="OBJECTS">
    <g>
      <rect class="uuid-050e4a00-276d-477c-a444-20ea4d17ce8d" x="35.91" y="53.86" width="5.98" height="5.98"/>
      <rect class="uuid-050e4a00-276d-477c-a444-20ea4d17ce8d" x="35.91" y="35.91" width="5.98" height="5.98"/>
      <rect class="uuid-c6084f18-8581-45e1-ab4b-51adffe49a2a" x="35.91" y="23.94" width="5.98" height="5.98"/>
      <rect class="uuid-050e4a00-276d-477c-a444-20ea4d17ce8d" x="35.91" y="17.95" width="5.98" height="5.99"/>
      <rect class="uuid-c6084f18-8581-45e1-ab4b-51adffe49a2a" x="35.91" y="11.97" width="5.98" height="5.98"/>
      <rect class="uuid-050e4a00-276d-477c-a444-20ea4d17ce8d" x="29.92" y="41.89" width="5.99" height="5.99"/>
      <g>
        <polygon class="uuid-c6084f18-8581-45e1-ab4b-51adffe49a2a" points="35.91 41.89 35.91 47.88 35.91 53.86 41.89 53.86 41.89 47.88 41.89 41.89 35.91 41.89"/>
        <polygon class="uuid-c6084f18-8581-45e1-ab4b-51adffe49a2a" points="23.94 53.86 23.94 59.84 29.92 59.84 35.91 59.84 35.91 53.86 29.92 53.86 23.94 53.86"/>
      </g>
      <rect class="uuid-050e4a00-276d-477c-a444-20ea4d17ce8d" x="23.94" y="5.98" width="5.98" height="5.99"/>
      <rect class="uuid-050e4a00-276d-477c-a444-20ea4d17ce8d" x="17.96" y="53.86" width="5.98" height="5.98"/>
      <path class="uuid-ed9e0505-7511-4be2-967e-f1a33ebdabed" d="M35.91,29.92V11.97h-11.97V5.98h-5.98v5.99h-5.99v5.98H29.92v5.99H11.97v5.98H29.92v5.99H11.97v-5.99H5.99v29.92h11.97v-5.98h17.95v-5.98h-5.99v-5.99h5.99v-5.98h5.98v-5.99h-5.98Zm-11.97,17.96H11.97v-5.99h11.97v5.99Z"/>
      <polygon class="uuid-8133d6d3-6d98-4cd4-84e9-560e5a2dfe4c" points="11.97 5.98 5.99 5.98 5.99 11.97 5.99 17.95 5.99 23.94 5.99 29.92 11.97 29.92 11.97 23.94 11.97 17.95 11.97 11.97 17.96 11.97 17.96 5.98 11.97 5.98"/>
      <polygon class="uuid-20dd5abf-499a-464b-ada3-c593f0fbd4b6" points="23.94 41.89 17.96 41.89 11.97 41.89 11.97 47.88 17.96 47.88 23.94 47.88 29.92 47.88 29.92 41.89 23.94 41.89"/>
      <polygon class="uuid-20dd5abf-499a-464b-ada3-c593f0fbd4b6" points="29.92 29.92 23.94 29.92 17.96 29.92 11.97 29.92 11.97 35.91 17.96 35.91 23.94 35.91 29.92 35.91 35.91 35.91 35.91 29.92 29.92 29.92"/>
      <polygon class="uuid-20dd5abf-499a-464b-ada3-c593f0fbd4b6" points="29.92 17.95 23.94 17.95 17.96 17.95 11.97 17.95 11.97 23.94 17.96 23.94 23.94 23.94 29.92 23.94 35.91 23.94 35.91 17.95 29.92 17.95"/>
      <g>
        <polygon class="uuid-20dd5abf-499a-464b-ada3-c593f0fbd4b6" points="41.89 11.97 41.89 17.95 41.89 23.94 41.89 29.92 41.89 35.91 41.89 41.89 41.89 47.88 41.89 53.86 41.89 59.84 47.88 59.84 47.88 53.86 47.88 47.88 47.88 41.89 47.88 35.91 47.88 29.92 47.88 23.94 47.88 17.95 47.88 11.97 41.89 11.97"/>
        <polygon class="uuid-20dd5abf-499a-464b-ada3-c593f0fbd4b6" points="29.92 59.84 23.94 59.84 17.96 59.84 11.97 59.84 5.99 59.84 5.99 65.84 11.97 65.84 17.96 65.84 23.94 65.84 29.92 65.84 35.91 65.84 41.89 65.84 41.89 59.84 35.91 59.84 29.92 59.84"/>
        <polygon class="uuid-20dd5abf-499a-464b-ada3-c593f0fbd4b6" points="35.91 11.97 41.89 11.97 41.89 5.98 35.91 5.98 29.92 5.98 29.92 11.97 35.91 11.97"/>
        <polygon class="uuid-20dd5abf-499a-464b-ada3-c593f0fbd4b6" points="5.99 47.88 5.99 41.89 5.99 35.91 5.99 29.92 5.99 23.94 5.99 17.95 5.99 11.97 5.99 5.98 0 5.98 0 11.97 0 17.95 0 23.94 0 29.92 0 35.91 0 41.89 0 47.88 0 53.86 0 59.84 5.99 59.84 5.99 53.86 5.99 47.88"/>
        <polygon class="uuid-20dd5abf-499a-464b-ada3-c593f0fbd4b6" points="17.96 5.98 23.94 5.98 29.92 5.98 29.92 0 23.94 0 17.96 0 11.97 0 5.99 0 5.99 5.98 11.97 5.98 17.96 5.98"/>
      </g>
    </g>
  </g>
</svg>