<?xml version="1.0" encoding="UTF-8"?>
<svg id="uuid-c6ddb70f-2a59-4b0d-934a-605302d31efb" data-name="Capa 2" xmlns="http://www.w3.org/2000/svg" viewBox="0 0 58.19 75.65">
  <defs>
    <style>
      .uuid-18806c76-3d2c-4c9c-9679-1a73966d4028 {
        fill: #006558;
      }

      .uuid-6aa6932a-5328-44c9-965d-dbde4d40292d {
        fill: #f42a5a;
      }

      .uuid-f7c6e601-0f02-45f4-bebe-fad673df5fa3 {
        fill: #eae8fc;
      }

      .uuid-5e947845-45b0-46ca-a4f0-1c5c879a081f {
        fill: #fff;
      }

      .uuid-536e974b-723e-414b-bbc7-30f3fea07184 {
        fill: #73b564;
      }

      .uuid-02548762-197a-4e90-aef4-1bbd596faab4 {
        fill: #9fda74;
      }

      .uuid-26d72a61-a8f1-46ff-8ef0-4f7fff5854f2 {
        fill: #8e8ec7;
      }

      .uuid-afc0952d-77d2-4337-9de3-4da48b5f90ca {
        fill: #c0c0f3;
      }

      .uuid-39794f0b-f683-4e1f-a40a-797f2ccbd50a {
        fill: #468a37;
      }

      .uuid-c0ac8215-5480-403c-8270-98ea07181513 {
        fill: #473d61;
      }
    </style>
  </defs>
  <g id="uuid-cbbb797f-0f73-4f32-9294-9cff33ae23ec" data-name="OBJECTS">
    <g>
      <rect class="uuid-afc0952d-77d2-4337-9de3-4da48b5f90ca" x="46.56" y="52.37" width="5.81" height="5.81"/>
      <rect class="uuid-26d72a61-a8f1-46ff-8ef0-4f7fff5854f2" x="46.56" y="46.55" width="5.81" height="5.83"/>
      <rect class="uuid-afc0952d-77d2-4337-9de3-4da48b5f90ca" x="46.56" y="40.73" width="5.81" height="5.81"/>
      <rect class="uuid-afc0952d-77d2-4337-9de3-4da48b5f90ca" x="46.56" y="34.91" width="5.81" height="5.83"/>
      <rect class="uuid-26d72a61-a8f1-46ff-8ef0-4f7fff5854f2" x="40.73" y="58.19" width="5.83" height="5.83"/>
      <rect class="uuid-6aa6932a-5328-44c9-965d-dbde4d40292d" x="40.73" y="52.37" width="5.83" height="5.81"/>
      <rect class="uuid-6aa6932a-5328-44c9-965d-dbde4d40292d" x="40.73" y="46.55" width="5.83" height="5.83"/>
      <rect class="uuid-6aa6932a-5328-44c9-965d-dbde4d40292d" x="40.73" y="40.73" width="5.83" height="5.81"/>
      <rect class="uuid-26d72a61-a8f1-46ff-8ef0-4f7fff5854f2" x="40.73" y="29.09" width="5.83" height="5.81"/>
      <rect class="uuid-26d72a61-a8f1-46ff-8ef0-4f7fff5854f2" x="34.92" y="64.01" width="5.81" height="5.81"/>
      <rect class="uuid-6aa6932a-5328-44c9-965d-dbde4d40292d" x="34.92" y="52.37" width="5.81" height="5.81"/>
      <rect class="uuid-afc0952d-77d2-4337-9de3-4da48b5f90ca" x="34.92" y="23.27" width="5.81" height="5.83"/>
      <rect class="uuid-afc0952d-77d2-4337-9de3-4da48b5f90ca" x="29.09" y="64.01" width="5.83" height="5.81"/>
      <rect class="uuid-6aa6932a-5328-44c9-965d-dbde4d40292d" x="29.09" y="52.37" width="5.83" height="5.81"/>
      <rect class="uuid-6aa6932a-5328-44c9-965d-dbde4d40292d" x="23.28" y="46.55" width="5.81" height="5.83"/>
      <rect class="uuid-6aa6932a-5328-44c9-965d-dbde4d40292d" x="23.28" y="40.73" width="5.81" height="5.81"/>
      <polygon class="uuid-26d72a61-a8f1-46ff-8ef0-4f7fff5854f2" points="29.09 11.64 23.28 11.64 23.28 17.45 29.09 17.45 34.92 17.45 34.92 11.64 29.09 11.64"/>
      <rect class="uuid-5e947845-45b0-46ca-a4f0-1c5c879a081f" x="11.64" y="29.09" width="5.81" height="5.81"/>
      <g>
        <polygon class="uuid-f7c6e601-0f02-45f4-bebe-fad673df5fa3" points="34.92 5.81 29.09 5.81 23.28 5.81 17.45 5.81 17.45 11.64 23.28 11.64 29.09 11.64 34.92 11.64 40.73 11.64 40.73 5.81 34.92 5.81"/>
        <polygon class="uuid-f7c6e601-0f02-45f4-bebe-fad673df5fa3" points="34.92 23.27 34.92 17.45 29.09 17.45 23.28 17.45 23.28 23.27 17.45 23.27 17.45 29.09 17.45 34.91 23.28 34.91 29.09 34.91 34.92 34.91 40.73 34.91 40.73 29.09 34.92 29.09 34.92 23.27"/>
        <polygon class="uuid-f7c6e601-0f02-45f4-bebe-fad673df5fa3" points="17.45 64.01 17.45 69.83 23.28 69.83 29.09 69.83 29.09 64.01 23.28 64.01 17.45 64.01"/>
        <rect class="uuid-f7c6e601-0f02-45f4-bebe-fad673df5fa3" x="11.64" y="58.19" width="5.81" height="5.83"/>
        <polygon class="uuid-f7c6e601-0f02-45f4-bebe-fad673df5fa3" points="11.64 46.55 5.81 46.55 5.81 52.37 5.81 58.19 11.64 58.19 11.64 52.37 11.64 46.55"/>
      </g>
      <rect class="uuid-5e947845-45b0-46ca-a4f0-1c5c879a081f" x="5.81" y="40.73" width="5.83" height="5.81"/>
      <rect class="uuid-5e947845-45b0-46ca-a4f0-1c5c879a081f" x="5.81" y="34.91" width="5.83" height="5.83"/>
      <rect class="uuid-5e947845-45b0-46ca-a4f0-1c5c879a081f" x="5.81" y="29.09" width="5.83" height="5.81"/>
      <rect class="uuid-6aa6932a-5328-44c9-965d-dbde4d40292d" x="40.73" y="52.37" width="5.83" height="5.81"/>
      <rect class="uuid-6aa6932a-5328-44c9-965d-dbde4d40292d" x="40.73" y="46.55" width="5.83" height="5.83"/>
      <rect class="uuid-6aa6932a-5328-44c9-965d-dbde4d40292d" x="34.92" y="52.37" width="5.81" height="5.81"/>
      <polygon class="uuid-18806c76-3d2c-4c9c-9679-1a73966d4028" points="40.73 46.55 40.73 52.37 40.73 58.19 46.56 58.19 46.56 52.37 46.56 46.55 40.73 46.55"/>
      <rect class="uuid-39794f0b-f683-4e1f-a40a-797f2ccbd50a" x="40.73" y="40.73" width="5.83" height="5.81"/>
      <rect class="uuid-39794f0b-f683-4e1f-a40a-797f2ccbd50a" x="40.73" y="34.91" width="5.83" height="5.83"/>
      <rect class="uuid-18806c76-3d2c-4c9c-9679-1a73966d4028" x="34.92" y="58.19" width="5.81" height="5.83"/>
      <rect class="uuid-18806c76-3d2c-4c9c-9679-1a73966d4028" x="34.92" y="40.73" width="5.81" height="5.81"/>
      <rect class="uuid-18806c76-3d2c-4c9c-9679-1a73966d4028" x="29.09" y="58.19" width="5.83" height="5.83"/>
      <polygon class="uuid-39794f0b-f683-4e1f-a40a-797f2ccbd50a" points="34.92 46.55 34.92 52.37 29.09 52.37 23.28 52.37 23.28 58.19 23.28 64.01 29.09 64.01 29.09 58.19 34.92 58.19 40.73 58.19 40.73 52.37 40.73 46.55 34.92 46.55"/>
      <rect class="uuid-5e947845-45b0-46ca-a4f0-1c5c879a081f" x="17.45" y="5.81" width="5.83" height="5.83"/>
      <rect class="uuid-02548762-197a-4e90-aef4-1bbd596faab4" x="11.64" y="46.55" width="5.81" height="5.83"/>
      <rect class="uuid-02548762-197a-4e90-aef4-1bbd596faab4" x="11.64" y="40.73" width="5.81" height="5.81"/>
      <polygon class="uuid-536e974b-723e-414b-bbc7-30f3fea07184" points="34.92 34.91 29.09 34.91 23.28 34.91 17.45 34.91 11.64 34.91 11.64 40.73 17.45 40.73 17.45 46.55 17.45 52.37 11.64 52.37 11.64 58.19 17.45 58.19 17.45 64.01 23.28 64.01 23.28 58.19 23.28 52.37 29.09 52.37 34.92 52.37 34.92 46.55 34.92 40.73 40.73 40.73 40.73 34.91 34.92 34.91"/>
      <rect class="uuid-5e947845-45b0-46ca-a4f0-1c5c879a081f" x="11.64" y="29.09" width="5.81" height="5.81"/>
      <rect class="uuid-5e947845-45b0-46ca-a4f0-1c5c879a081f" x="5.81" y="34.91" width="5.83" height="5.83"/>
      <rect class="uuid-5e947845-45b0-46ca-a4f0-1c5c879a081f" x="5.81" y="29.09" width="5.83" height="5.81"/>
      <g>
        <polygon class="uuid-c0ac8215-5480-403c-8270-98ea07181513" points="52.37 34.91 52.37 40.73 52.37 46.55 52.37 52.37 52.37 58.19 58.19 58.19 58.19 52.37 58.19 46.55 58.19 40.73 58.19 34.91 52.37 34.91"/>
        <rect class="uuid-c0ac8215-5480-403c-8270-98ea07181513" x="46.56" y="58.19" width="5.81" height="5.83"/>
        <rect class="uuid-c0ac8215-5480-403c-8270-98ea07181513" x="46.56" y="29.09" width="5.81" height="5.81"/>
        <rect class="uuid-c0ac8215-5480-403c-8270-98ea07181513" x="40.73" y="64.01" width="5.83" height="5.81"/>
        <rect class="uuid-c0ac8215-5480-403c-8270-98ea07181513" x="40.73" y="23.27" width="5.83" height="5.83"/>
        <rect class="uuid-c0ac8215-5480-403c-8270-98ea07181513" x="40.73" y="5.81" width="5.83" height="5.83"/>
        <polygon class="uuid-c0ac8215-5480-403c-8270-98ea07181513" points="34.92 17.45 34.92 23.27 40.73 23.27 40.73 17.45 40.73 11.64 34.92 11.64 34.92 17.45"/>
        <polygon class="uuid-c0ac8215-5480-403c-8270-98ea07181513" points="29.09 69.83 23.28 69.83 17.45 69.83 17.45 75.65 23.28 75.65 29.09 75.65 34.92 75.65 40.73 75.65 40.73 69.83 34.92 69.83 29.09 69.83"/>
        <polygon class="uuid-c0ac8215-5480-403c-8270-98ea07181513" points="29.09 5.81 34.92 5.81 40.73 5.81 40.73 0 34.92 0 29.09 0 23.28 0 17.45 0 17.45 5.81 23.28 5.81 29.09 5.81"/>
        <polygon class="uuid-c0ac8215-5480-403c-8270-98ea07181513" points="23.28 17.45 23.28 11.64 17.45 11.64 17.45 17.45 17.45 23.27 23.28 23.27 23.28 17.45"/>
        <rect class="uuid-c0ac8215-5480-403c-8270-98ea07181513" x="11.64" y="64.01" width="5.81" height="5.81"/>
        <polygon class="uuid-c0ac8215-5480-403c-8270-98ea07181513" points="17.45 29.09 17.45 23.27 11.64 23.27 5.81 23.27 5.81 29.09 11.64 29.09 17.45 29.09"/>
        <rect class="uuid-c0ac8215-5480-403c-8270-98ea07181513" x="11.64" y="5.81" width="5.81" height="5.83"/>
        <rect class="uuid-c0ac8215-5480-403c-8270-98ea07181513" x="5.81" y="58.19" width="5.83" height="5.83"/>
        <polygon class="uuid-c0ac8215-5480-403c-8270-98ea07181513" points="5.81 46.55 5.81 40.73 5.81 34.91 5.81 29.09 0 29.09 0 34.91 0 40.73 0 46.55 0 52.37 0 58.19 5.81 58.19 5.81 52.37 5.81 46.55"/>
      </g>
    </g>
  </g>
</svg>