<?xml version="1.0" encoding="UTF-8"?>
<svg id="uuid-b906a29e-4cdc-45ef-a648-6145edf854cc" data-name="Capa 2" xmlns="http://www.w3.org/2000/svg" viewBox="0 0 71.43 71.43">
  <defs>
    <style>
      .uuid-897ea4c8-74a0-4cb6-afa3-094f5294668e {
        fill: #f42a5a;
      }

      .uuid-683b042f-20c1-4e02-984f-fd3a867bb176 {
        fill: #f0916c;
      }

      .uuid-032d69d1-2a27-4596-924a-16ab8c117011 {
        fill: #ffaf7c;
      }

      .uuid-d5b8dcf9-2903-44c9-a12d-73c9802a6da6 {
        fill: #ffeac8;
      }

      .uuid-9798b54b-c236-4126-b675-287b6c06ffb0 {
        fill: #ffd393;
      }

      .uuid-788515dd-4187-498b-8ce0-6fada96ab096 {
        fill: #ffabb1;
      }

      .uuid-dc778de1-1da3-4f6b-a7b3-1e797894b9e1 {
        fill: #ff6a85;
      }

      .uuid-ec27d9fd-cc68-4141-9e13-5dac27e8ce43 {
        fill: #c47565;
      }

      .uuid-b0df182f-1ba3-460b-b221-635681e2f695 {
        fill: #473d61;
      }
    </style>
  </defs>
  <g id="uuid-a7e26d50-86e1-4e3f-86b0-7ad863a22b5b" data-name="OBJECTS">
    <g>
      <rect class="uuid-ec27d9fd-cc68-4141-9e13-5dac27e8ce43" x="49.45" y="32.97" width="5.49" height="5.49"/>
      <polygon class="uuid-897ea4c8-74a0-4cb6-afa3-094f5294668e" points="60.44 16.48 54.94 16.48 54.94 21.98 49.45 21.98 49.45 27.47 54.94 27.47 54.94 32.97 60.44 32.97 60.44 27.47 65.93 27.47 65.93 21.98 65.93 16.48 60.44 16.48"/>
      <rect class="uuid-788515dd-4187-498b-8ce0-6fada96ab096" x="49.45" y="5.49" width="5.49" height="5.5"/>
      <rect class="uuid-683b042f-20c1-4e02-984f-fd3a867bb176" x="43.95" y="38.46" width="5.5" height="5.5"/>
      <rect class="uuid-788515dd-4187-498b-8ce0-6fada96ab096" x="43.95" y="10.99" width="5.5" height="5.49"/>
      <rect class="uuid-ec27d9fd-cc68-4141-9e13-5dac27e8ce43" x="38.46" y="43.96" width="5.49" height="5.49"/>
      <rect class="uuid-683b042f-20c1-4e02-984f-fd3a867bb176" x="38.46" y="38.46" width="5.49" height="5.5"/>
      <g>
        <polygon class="uuid-dc778de1-1da3-4f6b-a7b3-1e797894b9e1" points="54.94 10.99 49.45 10.99 49.45 16.48 43.95 16.48 43.95 21.98 49.45 21.98 54.94 21.98 54.94 16.48 60.44 16.48 60.44 10.99 54.94 10.99"/>
        <rect class="uuid-dc778de1-1da3-4f6b-a7b3-1e797894b9e1" x="43.95" y="5.49" width="5.5" height="5.5"/>
        <rect class="uuid-dc778de1-1da3-4f6b-a7b3-1e797894b9e1" x="38.46" y="10.99" width="5.49" height="5.49"/>
      </g>
      <rect class="uuid-ec27d9fd-cc68-4141-9e13-5dac27e8ce43" x="32.96" y="49.45" width="5.5" height="5.49"/>
      <rect class="uuid-d5b8dcf9-2903-44c9-a12d-73c9802a6da6" x="32.96" y="21.98" width="5.5" height="5.49"/>
      <rect class="uuid-683b042f-20c1-4e02-984f-fd3a867bb176" x="27.47" y="54.94" width="5.49" height="5.5"/>
      <rect class="uuid-683b042f-20c1-4e02-984f-fd3a867bb176" x="27.47" y="49.45" width="5.49" height="5.49"/>
      <rect class="uuid-d5b8dcf9-2903-44c9-a12d-73c9802a6da6" x="27.47" y="27.47" width="5.49" height="5.5"/>
      <rect class="uuid-ec27d9fd-cc68-4141-9e13-5dac27e8ce43" x="21.97" y="60.44" width="5.5" height="5.49"/>
      <rect class="uuid-d5b8dcf9-2903-44c9-a12d-73c9802a6da6" x="21.97" y="32.97" width="5.5" height="5.49"/>
      <rect class="uuid-ec27d9fd-cc68-4141-9e13-5dac27e8ce43" x="16.48" y="60.44" width="5.49" height="5.49"/>
      <rect class="uuid-683b042f-20c1-4e02-984f-fd3a867bb176" x="16.48" y="54.94" width="5.49" height="5.5"/>
      <rect class="uuid-d5b8dcf9-2903-44c9-a12d-73c9802a6da6" x="16.48" y="38.46" width="5.49" height="5.5"/>
      <rect class="uuid-683b042f-20c1-4e02-984f-fd3a867bb176" x="10.99" y="60.44" width="5.49" height="5.49"/>
      <g>
        <polygon class="uuid-9798b54b-c236-4126-b675-287b6c06ffb0" points="38.46 21.98 38.46 27.47 32.96 27.47 32.96 32.97 27.47 32.97 27.47 38.46 21.97 38.46 21.97 43.96 16.48 43.96 16.48 49.45 21.97 49.45 27.47 49.45 27.47 43.96 32.96 43.96 32.96 38.46 38.46 38.46 38.46 32.97 43.95 32.97 43.95 27.47 43.95 21.98 38.46 21.98"/>
        <rect class="uuid-9798b54b-c236-4126-b675-287b6c06ffb0" x="32.96" y="16.48" width="5.5" height="5.5"/>
        <rect class="uuid-9798b54b-c236-4126-b675-287b6c06ffb0" x="27.47" y="21.98" width="5.49" height="5.49"/>
        <rect class="uuid-9798b54b-c236-4126-b675-287b6c06ffb0" x="21.97" y="27.47" width="5.5" height="5.5"/>
        <rect class="uuid-9798b54b-c236-4126-b675-287b6c06ffb0" x="16.48" y="32.97" width="5.49" height="5.49"/>
        <rect class="uuid-9798b54b-c236-4126-b675-287b6c06ffb0" x="10.99" y="38.46" width="5.49" height="5.5"/>
      </g>
      <g>
        <polygon class="uuid-032d69d1-2a27-4596-924a-16ab8c117011" points="43.95 27.47 43.95 32.97 38.46 32.97 38.46 38.46 43.95 38.46 49.45 38.46 49.45 32.97 49.45 27.47 43.95 27.47"/>
        <polygon class="uuid-032d69d1-2a27-4596-924a-16ab8c117011" points="32.96 43.96 27.47 43.96 27.47 49.45 32.96 49.45 38.46 49.45 38.46 43.96 38.46 38.46 32.96 38.46 32.96 43.96"/>
        <rect class="uuid-032d69d1-2a27-4596-924a-16ab8c117011" x="21.97" y="49.45" width="5.5" height="5.49"/>
        <polygon class="uuid-032d69d1-2a27-4596-924a-16ab8c117011" points="10.99 43.96 5.49 43.96 5.49 49.45 5.49 54.94 5.49 60.44 10.99 60.44 16.48 60.44 16.48 54.94 16.48 49.45 10.99 49.45 10.99 43.96"/>
      </g>
      <g>
        <polygon class="uuid-b0df182f-1ba3-460b-b221-635681e2f695" points="65.93 16.48 65.93 21.98 65.93 27.47 71.43 27.47 71.43 21.98 71.43 16.48 65.93 16.48"/>
        <rect class="uuid-b0df182f-1ba3-460b-b221-635681e2f695" x="60.44" y="27.47" width="5.49" height="5.5"/>
        <rect class="uuid-b0df182f-1ba3-460b-b221-635681e2f695" x="60.44" y="10.99" width="5.49" height="5.49"/>
        <rect class="uuid-b0df182f-1ba3-460b-b221-635681e2f695" x="54.94" y="32.97" width="5.5" height="5.49"/>
        <rect class="uuid-b0df182f-1ba3-460b-b221-635681e2f695" x="54.94" y="5.49" width="5.5" height="5.5"/>
        <rect class="uuid-b0df182f-1ba3-460b-b221-635681e2f695" x="49.45" y="38.46" width="5.49" height="5.5"/>
        <rect class="uuid-b0df182f-1ba3-460b-b221-635681e2f695" x="49.45" y="27.47" width="5.49" height="5.5"/>
        <polygon class="uuid-b0df182f-1ba3-460b-b221-635681e2f695" points="54.94 5.49 54.94 0 49.45 0 43.95 0 43.95 5.49 49.45 5.49 54.94 5.49"/>
        <rect class="uuid-b0df182f-1ba3-460b-b221-635681e2f695" x="43.95" y="43.96" width="5.5" height="5.49"/>
        <rect class="uuid-b0df182f-1ba3-460b-b221-635681e2f695" x="43.95" y="21.98" width="5.5" height="5.49"/>
        <rect class="uuid-b0df182f-1ba3-460b-b221-635681e2f695" x="38.46" y="49.45" width="5.49" height="5.49"/>
        <rect class="uuid-b0df182f-1ba3-460b-b221-635681e2f695" x="38.46" y="16.48" width="5.49" height="5.5"/>
        <rect class="uuid-b0df182f-1ba3-460b-b221-635681e2f695" x="38.46" y="5.49" width="5.49" height="5.5"/>
        <rect class="uuid-b0df182f-1ba3-460b-b221-635681e2f695" x="32.96" y="54.94" width="5.5" height="5.5"/>
        <rect class="uuid-b0df182f-1ba3-460b-b221-635681e2f695" x="32.96" y="10.99" width="5.5" height="5.49"/>
        <rect class="uuid-b0df182f-1ba3-460b-b221-635681e2f695" x="27.47" y="60.44" width="5.49" height="5.49"/>
        <rect class="uuid-b0df182f-1ba3-460b-b221-635681e2f695" x="27.47" y="16.48" width="5.49" height="5.5"/>
        <rect class="uuid-b0df182f-1ba3-460b-b221-635681e2f695" x="21.97" y="54.94" width="5.5" height="5.5"/>
        <rect class="uuid-b0df182f-1ba3-460b-b221-635681e2f695" x="21.97" y="21.98" width="5.5" height="5.49"/>
        <polygon class="uuid-b0df182f-1ba3-460b-b221-635681e2f695" points="16.48 65.93 10.99 65.93 10.99 60.44 5.49 60.44 5.49 54.94 5.49 49.45 5.49 43.96 0 43.96 0 49.45 0 54.94 0 60.44 0 65.93 0 71.43 5.49 71.43 10.99 71.43 16.48 71.43 21.97 71.43 27.47 71.43 27.47 65.93 21.97 65.93 16.48 65.93"/>
        <rect class="uuid-b0df182f-1ba3-460b-b221-635681e2f695" x="16.48" y="49.45" width="5.49" height="5.49"/>
        <rect class="uuid-b0df182f-1ba3-460b-b221-635681e2f695" x="16.48" y="27.47" width="5.49" height="5.5"/>
        <rect class="uuid-b0df182f-1ba3-460b-b221-635681e2f695" x="10.99" y="43.96" width="5.49" height="5.49"/>
        <rect class="uuid-b0df182f-1ba3-460b-b221-635681e2f695" x="10.99" y="32.97" width="5.49" height="5.49"/>
        <rect class="uuid-b0df182f-1ba3-460b-b221-635681e2f695" x="5.49" y="38.46" width="5.5" height="5.5"/>
      </g>
    </g>
  </g>
</svg>