<?xml version="1.0" encoding="UTF-8"?>
<svg id="uuid-24bf65a0-7dd1-40fa-b1e7-70c6cc64c604" data-name="Capa 2" xmlns="http://www.w3.org/2000/svg" viewBox="0 0 82.42 82.41">
  <defs>
    <style>
      .uuid-d77b7309-db74-4ed8-a684-a22568cd8470 {
        fill: #f0916c;
      }

      .uuid-c68032e7-b312-40c4-8778-c7240404c467 {
        fill: #ffeac8;
      }

      .uuid-b15f6d3e-27f3-4ab0-a3f4-4530d3189568 {
        fill: #ffd393;
      }

      .uuid-859f543a-635e-4369-81e1-3bac1dda6ef3 {
        fill: #ffbe82;
      }

      .uuid-119356fc-1fb1-4e14-9bc2-40ad21c3f369 {
        fill: #c47565;
      }

      .uuid-099a43cc-072d-4723-9f3b-644b30d15c8f {
        fill: #473d61;
      }
    </style>
  </defs>
  <g id="uuid-cf5ca80b-5a9b-47e0-b119-b370a6e193c3" data-name="OBJECTS">
    <g>
      <polygon class="uuid-859f543a-635e-4369-81e1-3bac1dda6ef3" points="71.43 71.42 65.94 71.42 65.94 76.92 71.43 76.92 76.93 76.92 76.93 71.42 71.43 71.42"/>
      <rect class="uuid-d77b7309-db74-4ed8-a684-a22568cd8470" x="65.94" y="65.93" width="5.49" height="5.49"/>
      <polygon class="uuid-859f543a-635e-4369-81e1-3bac1dda6ef3" points="65.94 60.43 60.44 60.43 60.44 65.93 60.44 71.42 65.94 71.42 65.94 65.93 71.43 65.93 71.43 60.43 65.94 60.43"/>
      <rect class="uuid-119356fc-1fb1-4e14-9bc2-40ad21c3f369" x="60.44" y="54.94" width="5.5" height="5.49"/>
      <rect class="uuid-119356fc-1fb1-4e14-9bc2-40ad21c3f369" x="60.44" y="38.46" width="5.5" height="5.49"/>
      <rect class="uuid-119356fc-1fb1-4e14-9bc2-40ad21c3f369" x="54.95" y="65.93" width="5.49" height="5.49"/>
      <rect class="uuid-c68032e7-b312-40c4-8778-c7240404c467" x="49.45" y="60.43" width="5.5" height="5.5"/>
      <rect class="uuid-d77b7309-db74-4ed8-a684-a22568cd8470" x="49.45" y="38.46" width="5.5" height="5.49"/>
      <polygon class="uuid-859f543a-635e-4369-81e1-3bac1dda6ef3" points="65.94 32.96 60.44 32.96 54.95 32.96 54.95 27.47 49.45 27.47 49.45 32.96 49.45 38.46 54.95 38.46 54.95 43.95 49.45 43.95 43.96 43.95 43.96 49.45 49.45 49.45 54.95 49.45 54.95 54.94 49.45 54.94 43.96 54.94 43.96 60.43 49.45 60.43 54.95 60.43 60.44 60.43 60.44 54.94 60.44 49.45 60.44 43.95 60.44 38.46 65.94 38.46 71.43 38.46 71.43 32.96 65.94 32.96"/>
      <rect class="uuid-c68032e7-b312-40c4-8778-c7240404c467" x="43.96" y="32.96" width="5.49" height="5.5"/>
      <polygon class="uuid-859f543a-635e-4369-81e1-3bac1dda6ef3" points="43.96 16.48 43.96 21.97 43.96 27.47 49.45 27.47 49.45 21.97 49.45 16.48 43.96 16.48"/>
      <rect class="uuid-859f543a-635e-4369-81e1-3bac1dda6ef3" x="32.97" y="60.43" width="5.49" height="5.5"/>
      <rect class="uuid-859f543a-635e-4369-81e1-3bac1dda6ef3" x="32.97" y="54.94" width="5.49" height="5.49"/>
      <rect class="uuid-c68032e7-b312-40c4-8778-c7240404c467" x="32.97" y="21.97" width="5.49" height="5.5"/>
      <rect class="uuid-d77b7309-db74-4ed8-a684-a22568cd8470" x="32.97" y="16.48" width="5.49" height="5.49"/>
      <rect class="uuid-d77b7309-db74-4ed8-a684-a22568cd8470" x="27.48" y="60.43" width="5.49" height="5.5"/>
      <rect class="uuid-c68032e7-b312-40c4-8778-c7240404c467" x="27.48" y="27.47" width="5.49" height="5.49"/>
      <rect class="uuid-859f543a-635e-4369-81e1-3bac1dda6ef3" x="21.98" y="65.93" width="5.5" height="5.49"/>
      <rect class="uuid-119356fc-1fb1-4e14-9bc2-40ad21c3f369" x="21.98" y="43.95" width="5.5" height="5.5"/>
      <rect class="uuid-119356fc-1fb1-4e14-9bc2-40ad21c3f369" x="16.49" y="65.93" width="5.49" height="5.49"/>
      <rect class="uuid-c68032e7-b312-40c4-8778-c7240404c467" x="16.49" y="54.94" width="5.49" height="5.49"/>
      <rect class="uuid-c68032e7-b312-40c4-8778-c7240404c467" x="16.49" y="32.96" width="5.49" height="5.5"/>
      <rect class="uuid-859f543a-635e-4369-81e1-3bac1dda6ef3" x="10.99" y="71.42" width="5.5" height="5.5"/>
      <rect class="uuid-c68032e7-b312-40c4-8778-c7240404c467" x="10.99" y="60.43" width="5.5" height="5.5"/>
      <g>
        <rect class="uuid-b15f6d3e-27f3-4ab0-a3f4-4530d3189568" x="54.95" y="60.43" width="5.49" height="5.5"/>
        <rect class="uuid-b15f6d3e-27f3-4ab0-a3f4-4530d3189568" x="43.96" y="60.43" width="5.49" height="5.5"/>
        <polygon class="uuid-b15f6d3e-27f3-4ab0-a3f4-4530d3189568" points="49.45 54.94 54.95 54.94 54.95 49.45 49.45 49.45 43.96 49.45 43.96 43.95 49.45 43.95 49.45 38.46 43.96 38.46 43.96 32.96 49.45 32.96 49.45 27.47 43.96 27.47 43.96 21.97 43.96 16.48 43.96 10.98 43.96 5.49 38.46 5.49 38.46 10.98 38.46 16.48 38.46 21.97 38.46 27.47 32.97 27.47 32.97 32.96 27.48 32.96 21.98 32.96 21.98 38.46 16.49 38.46 16.49 43.95 21.98 43.95 27.48 43.95 27.48 49.45 21.98 49.45 21.98 54.94 21.98 60.43 16.49 60.43 16.49 65.93 21.98 65.93 27.48 65.93 27.48 60.43 32.97 60.43 32.97 54.94 38.46 54.94 38.46 60.43 43.96 60.43 43.96 54.94 49.45 54.94"/>
        <rect class="uuid-b15f6d3e-27f3-4ab0-a3f4-4530d3189568" x="10.99" y="65.93" width="5.5" height="5.49"/>
        <rect class="uuid-b15f6d3e-27f3-4ab0-a3f4-4530d3189568" x="10.99" y="32.96" width="5.5" height="5.5"/>
        <rect class="uuid-b15f6d3e-27f3-4ab0-a3f4-4530d3189568" x="5.5" y="71.42" width="5.49" height="5.5"/>
      </g>
      <g>
        <polygon class="uuid-099a43cc-072d-4723-9f3b-644b30d15c8f" points="71.43 76.92 65.94 76.92 65.94 82.41 71.43 82.41 76.93 82.41 82.42 82.41 82.42 76.92 82.42 71.42 76.93 71.42 76.93 76.92 71.43 76.92"/>
        <polygon class="uuid-099a43cc-072d-4723-9f3b-644b30d15c8f" points="71.43 71.42 76.93 71.42 76.93 65.93 76.93 60.43 71.43 60.43 71.43 65.93 71.43 71.42"/>
        <rect class="uuid-099a43cc-072d-4723-9f3b-644b30d15c8f" x="65.94" y="54.94" width="5.49" height="5.49"/>
        <rect class="uuid-099a43cc-072d-4723-9f3b-644b30d15c8f" x="65.94" y="38.46" width="5.49" height="5.49"/>
        <polygon class="uuid-099a43cc-072d-4723-9f3b-644b30d15c8f" points="60.44 71.42 54.95 71.42 54.95 76.92 60.44 76.92 65.94 76.92 65.94 71.42 60.44 71.42"/>
        <polygon class="uuid-099a43cc-072d-4723-9f3b-644b30d15c8f" points="65.94 43.95 60.44 43.95 60.44 49.45 60.44 54.94 65.94 54.94 65.94 49.45 65.94 43.95"/>
        <polygon class="uuid-099a43cc-072d-4723-9f3b-644b30d15c8f" points="60.44 32.96 65.94 32.96 71.43 32.96 71.43 38.46 76.93 38.46 76.93 32.96 82.42 32.96 82.42 27.47 76.93 27.47 71.43 27.47 65.94 27.47 60.44 27.47 54.95 27.47 54.95 32.96 60.44 32.96"/>
        <polygon class="uuid-099a43cc-072d-4723-9f3b-644b30d15c8f" points="49.45 65.93 43.96 65.93 43.96 71.42 49.45 71.42 54.95 71.42 54.95 65.93 49.45 65.93"/>
        <polygon class="uuid-099a43cc-072d-4723-9f3b-644b30d15c8f" points="49.45 27.47 54.95 27.47 54.95 21.97 54.95 16.48 49.45 16.48 49.45 21.97 49.45 27.47"/>
        <polygon class="uuid-099a43cc-072d-4723-9f3b-644b30d15c8f" points="43.96 16.48 49.45 16.48 49.45 10.98 49.45 5.49 43.96 5.49 43.96 10.98 43.96 16.48"/>
        <rect class="uuid-099a43cc-072d-4723-9f3b-644b30d15c8f" x="38.46" y="60.43" width="5.5" height="5.5"/>
        <rect class="uuid-099a43cc-072d-4723-9f3b-644b30d15c8f" x="38.46" width="5.5" height="5.49"/>
        <polygon class="uuid-099a43cc-072d-4723-9f3b-644b30d15c8f" points="38.46 10.98 38.46 5.49 32.97 5.49 32.97 10.98 32.97 16.48 38.46 16.48 38.46 10.98"/>
        <polygon class="uuid-099a43cc-072d-4723-9f3b-644b30d15c8f" points="27.48 65.93 27.48 71.42 32.97 71.42 38.46 71.42 38.46 65.93 32.97 65.93 27.48 65.93"/>
        <polygon class="uuid-099a43cc-072d-4723-9f3b-644b30d15c8f" points="32.97 21.97 32.97 16.48 27.48 16.48 27.48 21.97 27.48 27.47 32.97 27.47 32.97 21.97"/>
        <polygon class="uuid-099a43cc-072d-4723-9f3b-644b30d15c8f" points="16.49 71.42 16.49 76.92 21.98 76.92 27.48 76.92 27.48 71.42 21.98 71.42 16.49 71.42"/>
        <polygon class="uuid-099a43cc-072d-4723-9f3b-644b30d15c8f" points="21.98 49.45 21.98 43.95 16.49 43.95 16.49 49.45 16.49 54.94 21.98 54.94 21.98 49.45"/>
        <rect class="uuid-099a43cc-072d-4723-9f3b-644b30d15c8f" x="10.99" y="54.94" width="5.5" height="5.49"/>
        <rect class="uuid-099a43cc-072d-4723-9f3b-644b30d15c8f" x="10.99" y="38.46" width="5.5" height="5.49"/>
        <polygon class="uuid-099a43cc-072d-4723-9f3b-644b30d15c8f" points="16.49 32.96 21.98 32.96 27.48 32.96 27.48 27.47 21.98 27.47 16.49 27.47 10.99 27.47 5.5 27.47 0 27.47 0 32.96 5.5 32.96 5.5 38.46 10.99 38.46 10.99 32.96 16.49 32.96"/>
        <polygon class="uuid-099a43cc-072d-4723-9f3b-644b30d15c8f" points="5.5 76.92 5.5 71.42 0 71.42 0 76.92 0 82.41 5.5 82.41 10.99 82.41 16.49 82.41 16.49 76.92 10.99 76.92 5.5 76.92"/>
        <polygon class="uuid-099a43cc-072d-4723-9f3b-644b30d15c8f" points="10.99 65.93 10.99 60.43 5.5 60.43 5.5 65.93 5.5 71.42 10.99 71.42 10.99 65.93"/>
      </g>
    </g>
  </g>
</svg>