<?xml version="1.0" encoding="UTF-8"?>
<svg id="uuid-cde69fa3-4cf3-4a6c-b26b-c0ed97d8ad11" data-name="Capa 2" xmlns="http://www.w3.org/2000/svg" viewBox="0 0 65.94 65.93">
  <defs>
    <style>
      .uuid-71886ffc-a9a6-42dc-8dbb-ae4a49d0da4d {
        fill: #a15242;
      }

      .uuid-5850353c-dba0-4f12-84f4-c9721b868fa0 {
        fill: #b86554;
      }

      .uuid-e8e36631-c0c6-4dfa-82b5-334cf6049681 {
        fill: #c47565;
      }

      .uuid-d3f5c22a-3a8f-4d59-9ad1-1223ff2daac6 {
        fill: #d48677;
      }

      .uuid-46817000-9844-4600-9bca-acb53d827e09 {
        fill: #473d61;
      }
    </style>
  </defs>
  <g id="uuid-1a227a72-fe27-4704-9a60-c6cd93ce920b" data-name="OBJECTS">
    <g>
      <rect class="uuid-71886ffc-a9a6-42dc-8dbb-ae4a49d0da4d" x="54.95" y="54.94" width="5.49" height="5.5"/>
      <rect class="uuid-71886ffc-a9a6-42dc-8dbb-ae4a49d0da4d" x="49.45" y="54.94" width="5.5" height="5.5"/>
      <rect class="uuid-71886ffc-a9a6-42dc-8dbb-ae4a49d0da4d" x="49.45" y="49.45" width="5.5" height="5.49"/>
      <rect class="uuid-71886ffc-a9a6-42dc-8dbb-ae4a49d0da4d" x="43.96" y="54.94" width="5.49" height="5.5"/>
      <rect class="uuid-71886ffc-a9a6-42dc-8dbb-ae4a49d0da4d" x="43.96" y="43.95" width="5.49" height="5.5"/>
      <rect class="uuid-71886ffc-a9a6-42dc-8dbb-ae4a49d0da4d" x="38.46" y="54.94" width="5.5" height="5.5"/>
      <rect class="uuid-71886ffc-a9a6-42dc-8dbb-ae4a49d0da4d" x="38.46" y="38.46" width="5.5" height="5.49"/>
      <rect class="uuid-71886ffc-a9a6-42dc-8dbb-ae4a49d0da4d" x="32.97" y="32.96" width="5.49" height="5.5"/>
      <rect class="uuid-71886ffc-a9a6-42dc-8dbb-ae4a49d0da4d" x="27.47" y="54.94" width="5.5" height="5.5"/>
      <rect class="uuid-71886ffc-a9a6-42dc-8dbb-ae4a49d0da4d" x="27.47" y="27.47" width="5.5" height="5.49"/>
      <rect class="uuid-71886ffc-a9a6-42dc-8dbb-ae4a49d0da4d" x="21.98" y="21.97" width="5.49" height="5.5"/>
      <g>
        <rect class="uuid-5850353c-dba0-4f12-84f4-c9721b868fa0" x="43.96" y="49.45" width="5.49" height="5.49"/>
        <rect class="uuid-5850353c-dba0-4f12-84f4-c9721b868fa0" x="38.46" y="43.95" width="5.5" height="5.5"/>
        <rect class="uuid-5850353c-dba0-4f12-84f4-c9721b868fa0" x="32.97" y="54.94" width="5.49" height="5.5"/>
        <rect class="uuid-5850353c-dba0-4f12-84f4-c9721b868fa0" x="32.97" y="38.46" width="5.49" height="5.49"/>
        <rect class="uuid-5850353c-dba0-4f12-84f4-c9721b868fa0" x="21.98" y="54.94" width="5.49" height="5.5"/>
        <rect class="uuid-5850353c-dba0-4f12-84f4-c9721b868fa0" x="16.49" y="16.48" width="5.49" height="5.49"/>
        <rect class="uuid-5850353c-dba0-4f12-84f4-c9721b868fa0" x="10.99" y="10.99" width="5.5" height="5.49"/>
      </g>
      <g>
        <polygon class="uuid-e8e36631-c0c6-4dfa-82b5-334cf6049681" points="38.46 49.45 32.97 49.45 27.47 49.45 21.98 49.45 16.49 49.45 16.49 43.95 16.49 38.46 16.49 32.96 21.98 32.96 27.47 32.96 27.47 27.47 21.98 27.47 21.98 21.97 16.49 21.97 16.49 16.48 10.99 16.48 10.99 21.97 10.99 27.47 10.99 32.96 10.99 38.46 10.99 43.95 10.99 49.45 5.5 49.45 5.5 54.94 5.5 60.44 10.99 60.44 16.49 60.44 21.98 60.44 21.98 54.94 27.47 54.94 32.97 54.94 38.46 54.94 43.96 54.94 43.96 49.45 38.46 49.45"/>
        <rect class="uuid-e8e36631-c0c6-4dfa-82b5-334cf6049681" x="27.47" y="32.96" width="5.5" height="5.5"/>
      </g>
      <g>
        <rect class="uuid-d3f5c22a-3a8f-4d59-9ad1-1223ff2daac6" x="32.97" y="43.95" width="5.49" height="5.5"/>
        <rect class="uuid-d3f5c22a-3a8f-4d59-9ad1-1223ff2daac6" x="27.47" y="38.46" width="5.5" height="5.49"/>
        <rect class="uuid-d3f5c22a-3a8f-4d59-9ad1-1223ff2daac6" x="21.98" y="32.96" width="5.49" height="5.5"/>
        <polygon class="uuid-d3f5c22a-3a8f-4d59-9ad1-1223ff2daac6" points="5.5 10.99 5.5 16.48 5.5 21.97 5.5 27.47 5.5 32.96 5.5 38.46 5.5 43.95 5.5 49.45 10.99 49.45 10.99 43.95 10.99 38.46 10.99 32.96 10.99 27.47 10.99 21.97 10.99 16.48 10.99 10.99 10.99 5.49 5.5 5.49 5.5 10.99"/>
      </g>
      <g>
        <polygon class="uuid-46817000-9844-4600-9bca-acb53d827e09" points="27.47 38.46 21.98 38.46 21.98 32.96 16.49 32.96 16.49 38.46 16.49 43.95 16.49 49.45 21.98 49.45 27.47 49.45 32.97 49.45 32.97 43.95 27.47 43.95 27.47 38.46"/>
        <rect class="uuid-46817000-9844-4600-9bca-acb53d827e09" x="60.44" y="54.94" width="5.5" height="5.5"/>
        <rect class="uuid-46817000-9844-4600-9bca-acb53d827e09" x="54.95" y="49.45" width="5.49" height="5.49"/>
        <polygon class="uuid-46817000-9844-4600-9bca-acb53d827e09" points="49.45 60.44 43.96 60.44 38.46 60.44 32.97 60.44 27.47 60.44 21.98 60.44 16.49 60.44 10.99 60.44 5.5 60.44 5.5 65.93 10.99 65.93 16.49 65.93 21.98 65.93 27.47 65.93 32.97 65.93 38.46 65.93 43.96 65.93 49.45 65.93 54.95 65.93 60.44 65.93 60.44 60.44 54.95 60.44 49.45 60.44"/>
        <rect class="uuid-46817000-9844-4600-9bca-acb53d827e09" x="49.45" y="43.95" width="5.5" height="5.5"/>
        <rect class="uuid-46817000-9844-4600-9bca-acb53d827e09" x="43.96" y="38.46" width="5.49" height="5.49"/>
        <rect class="uuid-46817000-9844-4600-9bca-acb53d827e09" x="38.46" y="32.96" width="5.5" height="5.5"/>
        <rect class="uuid-46817000-9844-4600-9bca-acb53d827e09" x="32.97" y="27.47" width="5.49" height="5.49"/>
        <rect class="uuid-46817000-9844-4600-9bca-acb53d827e09" x="27.47" y="21.97" width="5.5" height="5.5"/>
        <rect class="uuid-46817000-9844-4600-9bca-acb53d827e09" x="21.98" y="16.48" width="5.49" height="5.49"/>
        <rect class="uuid-46817000-9844-4600-9bca-acb53d827e09" x="16.49" y="10.99" width="5.49" height="5.49"/>
        <rect class="uuid-46817000-9844-4600-9bca-acb53d827e09" x="10.99" y="5.49" width="5.5" height="5.5"/>
        <rect class="uuid-46817000-9844-4600-9bca-acb53d827e09" x="5.5" width="5.49" height="5.49"/>
        <polygon class="uuid-46817000-9844-4600-9bca-acb53d827e09" points="5.5 49.45 5.5 43.95 5.5 38.46 5.5 32.96 5.5 27.47 5.5 21.97 5.5 16.48 5.5 10.99 5.5 5.49 0 5.49 0 10.99 0 16.48 0 21.97 0 27.47 0 32.96 0 38.46 0 43.95 0 49.45 0 54.94 0 60.44 5.5 60.44 5.5 54.94 5.5 49.45"/>
      </g>
    </g>
  </g>
</svg>