<?xml version="1.0" encoding="UTF-8"?>
<svg id="uuid-5ec3004a-de20-4eb7-a287-a47deac29531" data-name="Capa 2" xmlns="http://www.w3.org/2000/svg" viewBox="0 0 65.93 65.93">
  <defs>
    <style>
      .uuid-6b949bf4-b508-41dc-aeb7-e4c99edcdc49 {
        fill: #f0916c;
      }

      .uuid-91d235bd-90a4-41fc-9b26-68157ac23682 {
        fill: #ffaf7c;
      }

      .uuid-f5b1051b-2050-42dc-bc1f-b5f917e69813 {
        fill: #ffd393;
      }

      .uuid-009a96f5-7964-4226-a7fb-b21d429d855d {
        fill: #a15242;
      }

      .uuid-be8fdd0b-ccf4-4fe4-a1fb-472e52b981aa {
        fill: #c47565;
      }

      .uuid-ce9ba482-aed7-4d05-b8b8-49138584176d {
        fill: #d48677;
      }

      .uuid-21f354c3-3f27-4eac-9cec-0ecf64562e6e {
        fill: #473d61;
      }
    </style>
  </defs>
  <g id="uuid-7d821e0f-7c5f-41ef-8a72-fab7ca9205b9" data-name="OBJECTS">
    <g>
      <rect class="uuid-6b949bf4-b508-41dc-aeb7-e4c99edcdc49" x="54.94" y="16.48" width="5.5" height="5.5"/>
      <rect class="uuid-91d235bd-90a4-41fc-9b26-68157ac23682" x="54.94" y="10.99" width="5.5" height="5.49"/>
      <rect class="uuid-6b949bf4-b508-41dc-aeb7-e4c99edcdc49" x="54.94" y="5.49" width="5.5" height="5.5"/>
      <rect class="uuid-91d235bd-90a4-41fc-9b26-68157ac23682" x="49.45" y="16.48" width="5.49" height="5.5"/>
      <rect class="uuid-f5b1051b-2050-42dc-bc1f-b5f917e69813" x="49.45" y="10.99" width="5.49" height="5.49"/>
      <polygon class="uuid-6b949bf4-b508-41dc-aeb7-e4c99edcdc49" points="49.45 21.98 43.95 21.98 43.95 27.47 49.45 27.47 54.94 27.47 54.94 21.98 49.45 21.98"/>
      <rect class="uuid-f5b1051b-2050-42dc-bc1f-b5f917e69813" x="43.95" y="16.48" width="5.5" height="5.5"/>
      <rect class="uuid-f5b1051b-2050-42dc-bc1f-b5f917e69813" x="43.95" y="10.99" width="5.5" height="5.49"/>
      <rect class="uuid-91d235bd-90a4-41fc-9b26-68157ac23682" x="38.46" y="21.98" width="5.49" height="5.49"/>
      <rect class="uuid-f5b1051b-2050-42dc-bc1f-b5f917e69813" x="38.46" y="16.48" width="5.49" height="5.5"/>
      <rect class="uuid-f5b1051b-2050-42dc-bc1f-b5f917e69813" x="38.46" y="10.99" width="5.49" height="5.49"/>
      <rect class="uuid-009a96f5-7964-4226-a7fb-b21d429d855d" x="32.96" y="32.97" width="5.5" height="5.49"/>
      <rect class="uuid-be8fdd0b-ccf4-4fe4-a1fb-472e52b981aa" x="32.96" y="27.47" width="5.5" height="5.5"/>
      <rect class="uuid-009a96f5-7964-4226-a7fb-b21d429d855d" x="27.47" y="38.46" width="5.49" height="5.5"/>
      <rect class="uuid-be8fdd0b-ccf4-4fe4-a1fb-472e52b981aa" x="27.47" y="32.97" width="5.49" height="5.49"/>
      <rect class="uuid-ce9ba482-aed7-4d05-b8b8-49138584176d" x="27.47" y="27.47" width="5.49" height="5.5"/>
      <rect class="uuid-009a96f5-7964-4226-a7fb-b21d429d855d" x="21.97" y="43.96" width="5.5" height="5.49"/>
      <rect class="uuid-be8fdd0b-ccf4-4fe4-a1fb-472e52b981aa" x="21.97" y="38.46" width="5.5" height="5.5"/>
      <rect class="uuid-ce9ba482-aed7-4d05-b8b8-49138584176d" x="21.97" y="32.97" width="5.5" height="5.49"/>
      <rect class="uuid-009a96f5-7964-4226-a7fb-b21d429d855d" x="16.48" y="49.45" width="5.49" height="5.49"/>
      <rect class="uuid-be8fdd0b-ccf4-4fe4-a1fb-472e52b981aa" x="16.48" y="43.96" width="5.49" height="5.49"/>
      <rect class="uuid-ce9ba482-aed7-4d05-b8b8-49138584176d" x="16.48" y="38.46" width="5.49" height="5.5"/>
      <rect class="uuid-009a96f5-7964-4226-a7fb-b21d429d855d" x="10.99" y="54.94" width="5.49" height="5.5"/>
      <rect class="uuid-ce9ba482-aed7-4d05-b8b8-49138584176d" x="10.99" y="43.96" width="5.49" height="5.49"/>
      <rect class="uuid-be8fdd0b-ccf4-4fe4-a1fb-472e52b981aa" x="5.49" y="54.94" width="5.5" height="5.5"/>
      <rect class="uuid-be8fdd0b-ccf4-4fe4-a1fb-472e52b981aa" x="5.49" y="49.45" width="5.5" height="5.49"/>
      <g>
        <rect class="uuid-21f354c3-3f27-4eac-9cec-0ecf64562e6e" x="10.99" y="49.45" width="5.49" height="5.49"/>
        <polygon class="uuid-21f354c3-3f27-4eac-9cec-0ecf64562e6e" points="60.44 5.49 60.44 10.99 60.44 16.48 60.44 21.98 65.93 21.98 65.93 16.48 65.93 10.99 65.93 5.49 60.44 5.49"/>
        <rect class="uuid-21f354c3-3f27-4eac-9cec-0ecf64562e6e" x="54.94" y="21.98" width="5.5" height="5.49"/>
        <polygon class="uuid-21f354c3-3f27-4eac-9cec-0ecf64562e6e" points="43.95 27.47 38.46 27.47 38.46 32.97 38.46 38.46 43.95 38.46 43.95 32.97 49.45 32.97 54.94 32.97 54.94 27.47 49.45 27.47 43.95 27.47"/>
        <rect class="uuid-21f354c3-3f27-4eac-9cec-0ecf64562e6e" x="32.96" y="38.46" width="5.5" height="5.5"/>
        <rect class="uuid-21f354c3-3f27-4eac-9cec-0ecf64562e6e" x="27.47" y="43.96" width="5.49" height="5.49"/>
        <rect class="uuid-21f354c3-3f27-4eac-9cec-0ecf64562e6e" x="21.97" y="49.45" width="5.5" height="5.49"/>
        <rect class="uuid-21f354c3-3f27-4eac-9cec-0ecf64562e6e" x="16.48" y="54.94" width="5.49" height="5.5"/>
        <polygon class="uuid-21f354c3-3f27-4eac-9cec-0ecf64562e6e" points="5.49 60.44 5.49 54.94 5.49 49.45 0 49.45 0 54.94 0 60.44 0 65.93 5.49 65.93 10.99 65.93 16.48 65.93 16.48 60.44 10.99 60.44 5.49 60.44"/>
        <rect class="uuid-21f354c3-3f27-4eac-9cec-0ecf64562e6e" x="5.49" y="43.96" width="5.5" height="5.49"/>
        <rect class="uuid-21f354c3-3f27-4eac-9cec-0ecf64562e6e" x="10.99" y="38.46" width="5.49" height="5.5"/>
        <rect class="uuid-21f354c3-3f27-4eac-9cec-0ecf64562e6e" x="16.48" y="32.97" width="5.49" height="5.49"/>
        <rect class="uuid-21f354c3-3f27-4eac-9cec-0ecf64562e6e" x="21.97" y="27.47" width="5.5" height="5.5"/>
        <polygon class="uuid-21f354c3-3f27-4eac-9cec-0ecf64562e6e" points="38.46 27.47 38.46 21.98 38.46 16.48 38.46 10.99 32.96 10.99 32.96 16.48 32.96 21.98 27.47 21.98 27.47 27.47 32.96 27.47 38.46 27.47"/>
        <polygon class="uuid-21f354c3-3f27-4eac-9cec-0ecf64562e6e" points="49.45 10.99 54.94 10.99 54.94 5.49 49.45 5.49 43.95 5.49 38.46 5.49 38.46 10.99 43.95 10.99 49.45 10.99"/>
        <rect class="uuid-21f354c3-3f27-4eac-9cec-0ecf64562e6e" x="54.94" width="5.5" height="5.49"/>
      </g>
    </g>
  </g>
</svg>