<?xml version="1.0" encoding="UTF-8"?>
<svg id="uuid-ec2f469c-b162-4264-b4e8-179bf82d9dc9" data-name="Capa 2" xmlns="http://www.w3.org/2000/svg" viewBox="0 0 65.93 65.93">
  <defs>
    <style>
      .uuid-939ce331-5391-4ae9-8c72-c5b6871b1f4f {
        fill: #f42a5a;
      }

      .uuid-a34bb923-8010-4154-b187-e8b72a43a817 {
        fill: #ffabb1;
      }

      .uuid-fe1d85bf-8722-4eb4-8b14-41e4b2d87986 {
        fill: #ff6a85;
      }

      .uuid-6d02b947-71aa-40db-b464-7aba5222751b {
        fill: #b86554;
      }

      .uuid-768dd964-8336-4b71-a72a-efe1035df430 {
        fill: #c47565;
      }

      .uuid-11d994df-6676-40a5-955e-042ac6c8fbc3 {
        fill: #473d61;
      }
    </style>
  </defs>
  <g id="uuid-a52d29f5-26de-46c4-9b72-1c9b9e4387fa" data-name="OBJECTS">
    <g>
      <rect class="uuid-6d02b947-71aa-40db-b464-7aba5222751b" x="54.94" y="43.96" width="5.5" height="5.49"/>
      <rect class="uuid-768dd964-8336-4b71-a72a-efe1035df430" x="54.94" y="38.46" width="5.5" height="5.5"/>
      <g>
        <polygon class="uuid-939ce331-5391-4ae9-8c72-c5b6871b1f4f" points="49.45 21.98 49.45 27.47 49.45 32.97 49.45 38.46 49.45 43.96 43.95 43.96 43.95 49.45 49.45 49.45 49.45 54.94 54.94 54.94 54.94 49.45 54.94 43.96 54.94 38.46 54.94 32.97 54.94 27.47 54.94 21.98 49.45 21.98"/>
        <polygon class="uuid-939ce331-5391-4ae9-8c72-c5b6871b1f4f" points="43.95 16.48 38.46 16.48 38.46 21.98 43.95 21.98 49.45 21.98 49.45 16.48 43.95 16.48"/>
        <polygon class="uuid-939ce331-5391-4ae9-8c72-c5b6871b1f4f" points="38.46 54.94 32.96 54.94 32.96 60.44 38.46 60.44 43.95 60.44 43.95 54.94 43.95 49.45 38.46 49.45 38.46 54.94"/>
        <polygon class="uuid-939ce331-5391-4ae9-8c72-c5b6871b1f4f" points="32.96 43.96 27.47 43.96 27.47 49.45 32.96 49.45 38.46 49.45 38.46 43.96 32.96 43.96"/>
        <polygon class="uuid-939ce331-5391-4ae9-8c72-c5b6871b1f4f" points="38.46 38.46 38.46 32.97 32.96 32.97 27.47 32.97 27.47 38.46 32.96 38.46 38.46 38.46"/>
      </g>
      <g>
        <rect class="uuid-768dd964-8336-4b71-a72a-efe1035df430" x="38.46" y="10.99" width="5.49" height="5.49"/>
        <polygon class="uuid-768dd964-8336-4b71-a72a-efe1035df430" points="32.96 5.49 27.47 5.49 27.47 10.99 32.96 10.99 38.46 10.99 38.46 5.49 32.96 5.49"/>
      </g>
      <rect class="uuid-6d02b947-71aa-40db-b464-7aba5222751b" x="21.98" y="10.99" width="5.49" height="5.49"/>
      <rect class="uuid-a34bb923-8010-4154-b187-e8b72a43a817" x="16.48" y="16.48" width="5.5" height="5.5"/>
      <g>
        <polygon class="uuid-fe1d85bf-8722-4eb4-8b14-41e4b2d87986" points="43.95 21.98 38.46 21.98 38.46 16.48 32.96 16.48 27.47 16.48 21.98 16.48 21.98 21.98 16.48 21.98 16.48 27.47 16.48 32.97 16.48 38.46 16.48 43.96 10.99 43.96 10.99 49.45 10.99 54.94 16.48 54.94 16.48 49.45 21.98 49.45 21.98 43.96 21.98 38.46 27.47 38.46 27.47 32.97 27.47 27.47 32.96 27.47 38.46 27.47 38.46 32.97 38.46 38.46 43.95 38.46 43.95 43.96 49.45 43.96 49.45 38.46 49.45 32.97 49.45 27.47 49.45 21.98 43.95 21.98"/>
        <polygon class="uuid-fe1d85bf-8722-4eb4-8b14-41e4b2d87986" points="21.98 60.44 27.47 60.44 32.96 60.44 32.96 54.94 38.46 54.94 38.46 49.45 32.96 49.45 27.47 49.45 21.98 49.45 21.98 54.94 21.98 60.44"/>
      </g>
      <polygon class="uuid-a34bb923-8010-4154-b187-e8b72a43a817" points="10.99 21.98 10.99 27.47 10.99 32.97 10.99 38.46 10.99 43.96 16.48 43.96 16.48 38.46 16.48 32.97 16.48 27.47 16.48 21.98 10.99 21.98"/>
      <rect class="uuid-6d02b947-71aa-40db-b464-7aba5222751b" x="5.49" y="43.96" width="5.5" height="5.49"/>
      <rect class="uuid-768dd964-8336-4b71-a72a-efe1035df430" x="5.49" y="38.46" width="5.5" height="5.5"/>
      <g>
        <polygon class="uuid-11d994df-6676-40a5-955e-042ac6c8fbc3" points="5.49 38.46 0 38.46 0 43.96 0 49.45 5.49 49.45 5.49 43.96 5.49 38.46"/>
        <polygon class="uuid-11d994df-6676-40a5-955e-042ac6c8fbc3" points="49.45 49.45 43.95 49.45 43.95 54.94 43.95 60.44 38.46 60.44 32.96 60.44 27.47 60.44 21.98 60.44 21.98 54.94 21.98 49.45 16.48 49.45 16.48 54.94 10.99 54.94 10.99 60.44 16.48 60.44 16.48 65.93 21.98 65.93 27.47 65.93 32.96 65.93 38.46 65.93 43.95 65.93 49.45 65.93 49.45 60.44 54.94 60.44 54.94 54.94 49.45 54.94 49.45 49.45"/>
        <polygon class="uuid-11d994df-6676-40a5-955e-042ac6c8fbc3" points="27.47 43.96 32.96 43.96 38.46 43.96 38.46 49.45 43.95 49.45 43.95 43.96 43.95 38.46 38.46 38.46 32.96 38.46 27.47 38.46 21.98 38.46 21.98 43.96 21.98 49.45 27.47 49.45 27.47 43.96"/>
        <polygon class="uuid-11d994df-6676-40a5-955e-042ac6c8fbc3" points="27.47 27.47 27.47 32.97 32.96 32.97 38.46 32.97 38.46 27.47 32.96 27.47 27.47 27.47"/>
        <polygon class="uuid-11d994df-6676-40a5-955e-042ac6c8fbc3" points="27.47 10.99 27.47 16.48 32.96 16.48 38.46 16.48 38.46 10.99 32.96 10.99 27.47 10.99"/>
        <rect class="uuid-11d994df-6676-40a5-955e-042ac6c8fbc3" x="38.46" y="5.49" width="5.49" height="5.5"/>
        <rect class="uuid-11d994df-6676-40a5-955e-042ac6c8fbc3" x="43.95" y="10.99" width="5.5" height="5.49"/>
        <rect class="uuid-11d994df-6676-40a5-955e-042ac6c8fbc3" x="49.45" y="16.48" width="5.49" height="5.5"/>
        <polygon class="uuid-11d994df-6676-40a5-955e-042ac6c8fbc3" points="54.94 32.97 54.94 38.46 60.44 38.46 60.44 32.97 60.44 27.47 60.44 21.98 54.94 21.98 54.94 27.47 54.94 32.97"/>
        <polygon class="uuid-11d994df-6676-40a5-955e-042ac6c8fbc3" points="60.44 38.46 60.44 43.96 60.44 49.45 65.93 49.45 65.93 43.96 65.93 38.46 60.44 38.46"/>
        <rect class="uuid-11d994df-6676-40a5-955e-042ac6c8fbc3" x="54.94" y="49.45" width="5.5" height="5.49"/>
        <rect class="uuid-11d994df-6676-40a5-955e-042ac6c8fbc3" x="5.49" y="49.45" width="5.5" height="5.49"/>
        <polygon class="uuid-11d994df-6676-40a5-955e-042ac6c8fbc3" points="10.99 32.97 10.99 27.47 10.99 21.98 5.49 21.98 5.49 27.47 5.49 32.97 5.49 38.46 10.99 38.46 10.99 32.97"/>
        <rect class="uuid-11d994df-6676-40a5-955e-042ac6c8fbc3" x="10.99" y="16.48" width="5.49" height="5.5"/>
        <rect class="uuid-11d994df-6676-40a5-955e-042ac6c8fbc3" x="16.48" y="10.99" width="5.5" height="5.49"/>
        <rect class="uuid-11d994df-6676-40a5-955e-042ac6c8fbc3" x="21.98" y="5.49" width="5.49" height="5.5"/>
        <polygon class="uuid-11d994df-6676-40a5-955e-042ac6c8fbc3" points="38.46 5.49 38.46 0 32.96 0 27.47 0 27.47 5.49 32.96 5.49 38.46 5.49"/>
      </g>
    </g>
  </g>
</svg>