<?xml version="1.0" encoding="UTF-8"?>
<svg id="uuid-286caacf-602d-44ec-b35d-c88cd1483812" data-name="Capa 2" xmlns="http://www.w3.org/2000/svg" viewBox="0 0 65.94 82.42">
  <defs>
    <style>
      .uuid-ca46f12f-3684-4aeb-9dcf-eaf51e47d1d7 {
        fill: #f0916c;
      }

      .uuid-9708c1bf-b02a-4101-bf98-3d74e4fedf92 {
        fill: #ffeac8;
      }

      .uuid-179bd255-f2a4-42c4-b4a1-168cd965548c {
        fill: #ffd393;
      }

      .uuid-782e1645-7d1d-4a3d-93aa-129a38c79bd8 {
        fill: #ffbe82;
      }

      .uuid-9a2fb0a5-c32a-4b1c-8388-aa73a6969c8a {
        fill: #c47565;
      }

      .uuid-52b82e6f-6fdc-4a4f-bdc1-417becf1e354 {
        fill: #473d61;
      }
    </style>
  </defs>
  <g id="uuid-82af454d-46bf-474a-80cc-ae7a97993692" data-name="OBJECTS">
    <g>
      <rect class="uuid-782e1645-7d1d-4a3d-93aa-129a38c79bd8" x="54.95" y="5.49" width="5.49" height="5.5"/>
      <rect class="uuid-9a2fb0a5-c32a-4b1c-8388-aa73a6969c8a" x="49.45" y="10.99" width="5.5" height="5.49"/>
      <rect class="uuid-782e1645-7d1d-4a3d-93aa-129a38c79bd8" x="49.45" y="5.49" width="5.5" height="5.5"/>
      <rect class="uuid-9a2fb0a5-c32a-4b1c-8388-aa73a6969c8a" x="43.96" y="32.96" width="5.49" height="5.5"/>
      <rect class="uuid-782e1645-7d1d-4a3d-93aa-129a38c79bd8" x="43.96" y="16.48" width="5.49" height="5.5"/>
      <rect class="uuid-782e1645-7d1d-4a3d-93aa-129a38c79bd8" x="43.96" y="10.99" width="5.49" height="5.49"/>
      <rect class="uuid-ca46f12f-3684-4aeb-9dcf-eaf51e47d1d7" x="38.46" y="38.46" width="5.5" height="5.49"/>
      <rect class="uuid-782e1645-7d1d-4a3d-93aa-129a38c79bd8" x="38.46" y="32.96" width="5.5" height="5.5"/>
      <rect class="uuid-782e1645-7d1d-4a3d-93aa-129a38c79bd8" x="38.46" y="21.98" width="5.5" height="5.49"/>
      <rect class="uuid-ca46f12f-3684-4aeb-9dcf-eaf51e47d1d7" x="38.46" y="16.48" width="5.5" height="5.5"/>
      <rect class="uuid-782e1645-7d1d-4a3d-93aa-129a38c79bd8" x="32.97" y="43.95" width="5.49" height="5.5"/>
      <rect class="uuid-782e1645-7d1d-4a3d-93aa-129a38c79bd8" x="32.97" y="38.46" width="5.49" height="5.49"/>
      <rect class="uuid-9a2fb0a5-c32a-4b1c-8388-aa73a6969c8a" x="27.47" y="49.45" width="5.5" height="5.49"/>
      <rect class="uuid-9708c1bf-b02a-4101-bf98-3d74e4fedf92" x="27.47" y="10.99" width="5.5" height="5.49"/>
      <rect class="uuid-782e1645-7d1d-4a3d-93aa-129a38c79bd8" x="21.98" y="54.94" width="5.49" height="5.5"/>
      <rect class="uuid-782e1645-7d1d-4a3d-93aa-129a38c79bd8" x="21.98" y="49.45" width="5.49" height="5.49"/>
      <rect class="uuid-9708c1bf-b02a-4101-bf98-3d74e4fedf92" x="21.98" y="16.48" width="5.49" height="5.5"/>
      <rect class="uuid-9a2fb0a5-c32a-4b1c-8388-aa73a6969c8a" x="16.48" y="60.44" width="5.5" height="5.49"/>
      <rect class="uuid-782e1645-7d1d-4a3d-93aa-129a38c79bd8" x="16.48" y="32.96" width="5.5" height="5.5"/>
      <rect class="uuid-9708c1bf-b02a-4101-bf98-3d74e4fedf92" x="16.48" y="21.98" width="5.5" height="5.49"/>
      <rect class="uuid-ca46f12f-3684-4aeb-9dcf-eaf51e47d1d7" x="10.99" y="65.93" width="5.49" height="5.5"/>
      <rect class="uuid-782e1645-7d1d-4a3d-93aa-129a38c79bd8" x="10.99" y="60.44" width="5.49" height="5.49"/>
      <rect class="uuid-782e1645-7d1d-4a3d-93aa-129a38c79bd8" x="5.5" y="71.43" width="5.49" height="5.49"/>
      <g>
        <polygon class="uuid-179bd255-f2a4-42c4-b4a1-168cd965548c" points="43.96 5.49 38.46 5.49 32.97 5.49 27.47 5.49 21.98 5.49 21.98 10.99 16.48 10.99 16.48 16.48 16.48 21.98 21.98 21.98 21.98 16.48 27.47 16.48 27.47 10.99 32.97 10.99 32.97 16.48 27.47 16.48 27.47 21.98 21.98 21.98 21.98 27.47 16.48 27.47 16.48 21.98 10.99 21.98 10.99 27.47 10.99 32.96 16.48 32.96 21.98 32.96 21.98 38.46 16.48 38.46 16.48 43.95 16.48 49.45 10.99 49.45 10.99 54.94 10.99 60.44 16.48 60.44 21.98 60.44 21.98 54.94 21.98 49.45 27.47 49.45 32.97 49.45 32.97 43.95 32.97 38.46 38.46 38.46 38.46 32.96 38.46 27.47 38.46 21.98 38.46 16.48 43.96 16.48 43.96 10.99 49.45 10.99 49.45 5.49 43.96 5.49"/>
        <rect class="uuid-179bd255-f2a4-42c4-b4a1-168cd965548c" x="5.5" y="65.93" width="5.49" height="5.5"/>
      </g>
      <polygon class="uuid-ca46f12f-3684-4aeb-9dcf-eaf51e47d1d7" points="10.99 32.96 5.5 32.96 5.5 38.46 10.99 38.46 16.48 38.46 16.48 32.96 10.99 32.96"/>
      <g>
        <rect class="uuid-52b82e6f-6fdc-4a4f-bdc1-417becf1e354" x="60.44" y="5.49" width="5.5" height="5.5"/>
        <rect class="uuid-52b82e6f-6fdc-4a4f-bdc1-417becf1e354" x="54.95" y="10.99" width="5.49" height="5.49"/>
        <rect class="uuid-52b82e6f-6fdc-4a4f-bdc1-417becf1e354" x="49.45" y="32.96" width="5.5" height="5.5"/>
        <rect class="uuid-52b82e6f-6fdc-4a4f-bdc1-417becf1e354" x="49.45" y="16.48" width="5.5" height="5.5"/>
        <rect class="uuid-52b82e6f-6fdc-4a4f-bdc1-417becf1e354" x="43.96" y="38.46" width="5.49" height="5.49"/>
        <polygon class="uuid-52b82e6f-6fdc-4a4f-bdc1-417becf1e354" points="43.96 27.47 38.46 27.47 38.46 32.96 43.96 32.96 49.45 32.96 49.45 27.47 49.45 21.98 43.96 21.98 43.96 27.47"/>
        <rect class="uuid-52b82e6f-6fdc-4a4f-bdc1-417becf1e354" x="38.46" y="43.95" width="5.5" height="5.5"/>
        <rect class="uuid-52b82e6f-6fdc-4a4f-bdc1-417becf1e354" x="32.97" y="49.45" width="5.49" height="5.49"/>
        <rect class="uuid-52b82e6f-6fdc-4a4f-bdc1-417becf1e354" x="27.47" y="54.94" width="5.5" height="5.5"/>
        <polygon class="uuid-52b82e6f-6fdc-4a4f-bdc1-417becf1e354" points="32.97 5.49 38.46 5.49 43.96 5.49 49.45 5.49 54.95 5.49 60.44 5.49 60.44 0 54.95 0 49.45 0 43.96 0 38.46 0 32.97 0 27.47 0 21.98 0 21.98 5.49 27.47 5.49 32.97 5.49"/>
        <rect class="uuid-52b82e6f-6fdc-4a4f-bdc1-417becf1e354" x="21.98" y="60.44" width="5.49" height="5.49"/>
        <rect class="uuid-52b82e6f-6fdc-4a4f-bdc1-417becf1e354" x="16.48" y="65.93" width="5.5" height="5.5"/>
        <rect class="uuid-52b82e6f-6fdc-4a4f-bdc1-417becf1e354" x="16.48" y="5.49" width="5.5" height="5.5"/>
        <rect class="uuid-52b82e6f-6fdc-4a4f-bdc1-417becf1e354" x="10.99" y="71.43" width="5.49" height="5.49"/>
        <polygon class="uuid-52b82e6f-6fdc-4a4f-bdc1-417becf1e354" points="16.48 43.95 21.98 43.95 21.98 38.46 16.48 38.46 10.99 38.46 5.5 38.46 5.5 43.95 10.99 43.95 10.99 49.45 16.48 49.45 16.48 43.95"/>
        <polygon class="uuid-52b82e6f-6fdc-4a4f-bdc1-417becf1e354" points="16.48 16.48 16.48 10.99 10.99 10.99 10.99 16.48 10.99 21.98 16.48 21.98 16.48 16.48"/>
        <polygon class="uuid-52b82e6f-6fdc-4a4f-bdc1-417becf1e354" points="10.99 60.44 10.99 54.94 10.99 49.45 5.5 49.45 5.5 54.94 5.5 60.44 5.5 65.93 10.99 65.93 10.99 60.44"/>
        <polygon class="uuid-52b82e6f-6fdc-4a4f-bdc1-417becf1e354" points="10.99 27.47 10.99 21.98 5.5 21.98 5.5 27.47 5.5 32.96 10.99 32.96 10.99 27.47"/>
        <polygon class="uuid-52b82e6f-6fdc-4a4f-bdc1-417becf1e354" points="5.5 71.43 5.5 65.93 0 65.93 0 71.43 0 76.92 0 82.42 5.5 82.42 10.99 82.42 10.99 76.92 5.5 76.92 5.5 71.43"/>
        <rect class="uuid-52b82e6f-6fdc-4a4f-bdc1-417becf1e354" y="32.96" width="5.5" height="5.5"/>
      </g>
    </g>
  </g>
</svg>