<?xml version="1.0" encoding="UTF-8"?>
<svg id="uuid-98313aea-7045-4023-a1f0-d939498373ad" data-name="Capa 2" xmlns="http://www.w3.org/2000/svg" viewBox="0 0 76.06 76.04">
  <defs>
    <style>
      .uuid-af3e6d29-dad1-4a67-af24-8d2150a335e7 {
        fill: #eae8fc;
      }

      .uuid-347bdac0-b1c1-47f7-8bf6-da94fea82031 {
        fill: #fff;
      }

      .uuid-2eecc88b-cb1d-4095-a348-329743685361 {
        fill: #ffd393;
      }

      .uuid-e88a9804-b6e6-42c2-b0c6-89a3d51937b9 {
        fill: #a15242;
      }

      .uuid-8829ecd2-9dba-463b-aa1b-cef967721c99 {
        fill: #c47565;
      }

      .uuid-d7484c04-cb4b-44be-bb88-b1c923128aee {
        fill: #d48677;
      }

      .uuid-9ba5ade9-43bc-4314-878f-6412eb89c6f9 {
        fill: #dbd7fc;
      }

      .uuid-879391fd-2698-4b5c-bce7-37c51a328a25 {
        fill: #473d61;
      }
    </style>
  </defs>
  <g id="uuid-0df18458-7c8c-48fd-a4e1-93dd48f76a3a" data-name="OBJECTS">
    <g>
      <g>
        <rect class="uuid-9ba5ade9-43bc-4314-878f-6412eb89c6f9" x="64.35" y="11.69" width="5.86" height="5.86"/>
        <rect class="uuid-9ba5ade9-43bc-4314-878f-6412eb89c6f9" x="58.51" y="17.55" width="5.85" height="5.85"/>
        <rect class="uuid-9ba5ade9-43bc-4314-878f-6412eb89c6f9" x="52.65" y="23.39" width="5.86" height="5.86"/>
        <rect class="uuid-9ba5ade9-43bc-4314-878f-6412eb89c6f9" x="46.81" y="29.25" width="5.85" height="5.85"/>
        <rect class="uuid-9ba5ade9-43bc-4314-878f-6412eb89c6f9" x="40.95" y="35.09" width="5.86" height="5.86"/>
        <rect class="uuid-9ba5ade9-43bc-4314-878f-6412eb89c6f9" x="35.1" y="40.95" width="5.85" height="5.85"/>
      </g>
      <g>
        <polygon class="uuid-af3e6d29-dad1-4a67-af24-8d2150a335e7" points="64.35 5.85 58.51 5.85 58.51 11.69 58.51 17.55 64.35 17.55 64.35 11.69 70.21 11.69 70.21 5.85 64.35 5.85"/>
        <rect class="uuid-af3e6d29-dad1-4a67-af24-8d2150a335e7" x="52.65" y="17.55" width="5.86" height="5.85"/>
        <rect class="uuid-af3e6d29-dad1-4a67-af24-8d2150a335e7" x="46.81" y="23.39" width="5.85" height="5.86"/>
        <rect class="uuid-af3e6d29-dad1-4a67-af24-8d2150a335e7" x="40.95" y="29.25" width="5.86" height="5.85"/>
        <polygon class="uuid-af3e6d29-dad1-4a67-af24-8d2150a335e7" points="29.26 35.09 29.26 40.95 29.26 46.79 35.1 46.79 35.1 40.95 40.95 40.95 40.95 35.09 35.1 35.09 29.26 35.09"/>
      </g>
      <rect class="uuid-2eecc88b-cb1d-4095-a348-329743685361" x="23.4" y="46.79" width="5.86" height="5.86"/>
      <g>
        <rect class="uuid-347bdac0-b1c1-47f7-8bf6-da94fea82031" x="52.65" y="11.69" width="5.86" height="5.86"/>
        <rect class="uuid-347bdac0-b1c1-47f7-8bf6-da94fea82031" x="46.81" y="17.55" width="5.85" height="5.85"/>
        <rect class="uuid-347bdac0-b1c1-47f7-8bf6-da94fea82031" x="40.95" y="23.39" width="5.86" height="5.86"/>
        <rect class="uuid-347bdac0-b1c1-47f7-8bf6-da94fea82031" x="35.1" y="29.25" width="5.85" height="5.85"/>
        <rect class="uuid-347bdac0-b1c1-47f7-8bf6-da94fea82031" x="23.4" y="35.09" width="5.86" height="5.86"/>
      </g>
      <rect class="uuid-d7484c04-cb4b-44be-bb88-b1c923128aee" x="11.7" y="29.25" width="5.86" height="5.85"/>
      <g>
        <polygon class="uuid-e88a9804-b6e6-42c2-b0c6-89a3d51937b9" points="35.1 58.5 35.1 64.34 35.1 70.2 40.95 70.2 40.95 64.34 40.95 58.5 35.1 58.5"/>
        <polygon class="uuid-e88a9804-b6e6-42c2-b0c6-89a3d51937b9" points="29.26 52.65 23.4 52.65 17.56 52.65 17.56 58.5 23.4 58.5 29.26 58.5 35.1 58.5 35.1 52.65 29.26 52.65"/>
        <rect class="uuid-e88a9804-b6e6-42c2-b0c6-89a3d51937b9" x="11.7" y="58.5" width="5.86" height="5.85"/>
        <rect class="uuid-e88a9804-b6e6-42c2-b0c6-89a3d51937b9" x="11.7" y="35.09" width="5.86" height="5.86"/>
        <rect class="uuid-e88a9804-b6e6-42c2-b0c6-89a3d51937b9" x="5.86" y="64.34" width="5.85" height="5.86"/>
      </g>
      <g>
        <rect class="uuid-8829ecd2-9dba-463b-aa1b-cef967721c99" x="40.95" y="58.5" width="5.86" height="5.85"/>
        <rect class="uuid-8829ecd2-9dba-463b-aa1b-cef967721c99" x="29.26" y="46.79" width="5.85" height="5.86"/>
        <polygon class="uuid-8829ecd2-9dba-463b-aa1b-cef967721c99" points="23.4 40.95 17.56 40.95 17.56 46.79 17.56 52.65 23.4 52.65 23.4 46.79 29.26 46.79 29.26 40.95 23.4 40.95"/>
        <rect class="uuid-8829ecd2-9dba-463b-aa1b-cef967721c99" x="5.86" y="35.09" width="5.85" height="5.86"/>
      </g>
      <g>
        <rect class="uuid-879391fd-2698-4b5c-bce7-37c51a328a25" x="64.35" y="17.55" width="5.86" height="5.85"/>
        <polygon class="uuid-879391fd-2698-4b5c-bce7-37c51a328a25" points="70.21 0 70.2 0 64.35 0 58.51 0 58.51 5.85 64.35 5.85 70.2 5.85 70.21 5.85 70.21 11.69 70.21 17.55 76.05 17.55 76.05 11.69 76.05 5.85 76.06 5.85 76.06 0 70.21 0"/>
        <rect class="uuid-879391fd-2698-4b5c-bce7-37c51a328a25" x="58.51" y="23.39" width="5.85" height="5.86"/>
        <rect class="uuid-879391fd-2698-4b5c-bce7-37c51a328a25" x="52.65" y="29.25" width="5.86" height="5.85"/>
        <rect class="uuid-879391fd-2698-4b5c-bce7-37c51a328a25" x="52.65" y="5.85" width="5.86" height="5.85"/>
        <rect class="uuid-879391fd-2698-4b5c-bce7-37c51a328a25" x="46.81" y="35.09" width="5.85" height="5.86"/>
        <rect class="uuid-879391fd-2698-4b5c-bce7-37c51a328a25" x="46.81" y="11.69" width="5.85" height="5.86"/>
        <rect class="uuid-879391fd-2698-4b5c-bce7-37c51a328a25" x="40.95" y="64.34" width="5.86" height="5.86"/>
        <rect class="uuid-879391fd-2698-4b5c-bce7-37c51a328a25" x="40.95" y="40.95" width="5.86" height="5.85"/>
        <rect class="uuid-879391fd-2698-4b5c-bce7-37c51a328a25" x="40.95" y="17.55" width="5.86" height="5.85"/>
        <rect class="uuid-879391fd-2698-4b5c-bce7-37c51a328a25" x="35.1" y="70.2" width="5.85" height="5.85"/>
        <polygon class="uuid-879391fd-2698-4b5c-bce7-37c51a328a25" points="35.1 52.65 35.1 58.5 40.95 58.5 46.81 58.5 46.81 64.34 52.65 64.34 52.65 58.5 52.65 52.65 46.81 52.65 40.95 52.65 40.95 46.79 35.1 46.79 35.1 52.65"/>
        <rect class="uuid-879391fd-2698-4b5c-bce7-37c51a328a25" x="35.1" y="23.39" width="5.85" height="5.86"/>
        <polygon class="uuid-879391fd-2698-4b5c-bce7-37c51a328a25" points="35.1 58.5 29.26 58.5 23.4 58.5 17.56 58.5 17.56 64.34 23.4 64.34 29.26 64.34 29.26 70.2 35.1 70.2 35.1 64.34 35.1 58.5"/>
        <rect class="uuid-879391fd-2698-4b5c-bce7-37c51a328a25" x="29.26" y="29.25" width="5.85" height="5.85"/>
        <polygon class="uuid-879391fd-2698-4b5c-bce7-37c51a328a25" points="17.56 40.95 23.4 40.95 29.26 40.95 29.26 35.09 23.4 35.09 23.4 29.25 17.56 29.25 17.56 35.09 17.56 40.95"/>
        <rect class="uuid-879391fd-2698-4b5c-bce7-37c51a328a25" x="11.7" y="64.34" width="5.86" height="5.86"/>
        <polygon class="uuid-879391fd-2698-4b5c-bce7-37c51a328a25" points="17.56 52.65 17.56 46.79 17.56 40.95 11.7 40.95 5.86 40.95 5.86 46.79 11.7 46.79 11.7 52.65 11.7 58.5 17.56 58.5 17.56 52.65"/>
        <rect class="uuid-879391fd-2698-4b5c-bce7-37c51a328a25" x="11.7" y="23.39" width="5.86" height="5.86"/>
        <rect class="uuid-879391fd-2698-4b5c-bce7-37c51a328a25" x="5.86" y="70.2" width="5.85" height="5.85"/>
        <rect class="uuid-879391fd-2698-4b5c-bce7-37c51a328a25" x="5.86" y="58.5" width="5.85" height="5.85"/>
        <rect class="uuid-879391fd-2698-4b5c-bce7-37c51a328a25" x="5.86" y="29.25" width="5.85" height="5.85"/>
        <rect class="uuid-879391fd-2698-4b5c-bce7-37c51a328a25" y="64.34" width="5.86" height="5.86"/>
        <rect class="uuid-879391fd-2698-4b5c-bce7-37c51a328a25" y="35.09" width="5.86" height="5.86"/>
      </g>
    </g>
  </g>
</svg>