<?xml version="1.0" encoding="UTF-8"?>
<svg id="uuid-58bfcd36-2503-4840-8762-887a95453e0c" data-name="Capa 2" xmlns="http://www.w3.org/2000/svg" viewBox="0 0 76.93 76.92">
  <defs>
    <style>
      .uuid-cd88936f-0cf7-4448-a254-e245c4339022 {
        fill: #f0916c;
      }

      .uuid-8d3aaa83-5267-4017-85be-f6cd8616c8b8 {
        fill: #ffaf7c;
      }

      .uuid-ed69ba01-cadf-4bcd-a000-86bbe60d91a7 {
        fill: #ffeac8;
      }

      .uuid-1b86ab7e-808a-401c-b211-c3d3be5ee77a {
        fill: #ffd393;
      }

      .uuid-c5d4ec6c-aa2d-442e-83a9-c5bf3b9beb0a {
        fill: #ffbe82;
      }

      .uuid-d46b0678-c4ae-4e19-9f6a-65c9820615e4 {
        fill: #ff7774;
      }

      .uuid-28825928-2aa7-4d6d-8546-d169a93f5e88 {
        fill: #c47565;
      }

      .uuid-cb97f23e-591e-4b0f-83fb-8f9a51560473 {
        fill: #473d61;
      }
    </style>
  </defs>
  <g id="uuid-19e3b213-9b21-4fd6-bc09-0133577a3f22" data-name="OBJECTS">
    <g>
      <rect class="uuid-d46b0678-c4ae-4e19-9f6a-65c9820615e4" x="43.96" y="43.95" width="5.49" height="5.5"/>
      <rect class="uuid-d46b0678-c4ae-4e19-9f6a-65c9820615e4" x="43.96" y="16.48" width="5.49" height="5.49"/>
      <rect class="uuid-d46b0678-c4ae-4e19-9f6a-65c9820615e4" x="38.46" y="49.45" width="5.5" height="5.49"/>
      <rect class="uuid-d46b0678-c4ae-4e19-9f6a-65c9820615e4" x="38.46" y="16.48" width="5.5" height="5.49"/>
      <rect class="uuid-d46b0678-c4ae-4e19-9f6a-65c9820615e4" x="32.97" y="49.45" width="5.49" height="5.49"/>
      <rect class="uuid-d46b0678-c4ae-4e19-9f6a-65c9820615e4" x="32.97" y="16.48" width="5.49" height="5.49"/>
      <rect class="uuid-d46b0678-c4ae-4e19-9f6a-65c9820615e4" x="27.48" y="16.48" width="5.49" height="5.49"/>
      <rect class="uuid-d46b0678-c4ae-4e19-9f6a-65c9820615e4" x="21.98" y="21.97" width="5.5" height="5.5"/>
      <rect class="uuid-d46b0678-c4ae-4e19-9f6a-65c9820615e4" x="16.49" y="43.95" width="5.49" height="5.5"/>
      <rect class="uuid-d46b0678-c4ae-4e19-9f6a-65c9820615e4" x="16.49" y="38.46" width="5.49" height="5.49"/>
      <rect class="uuid-d46b0678-c4ae-4e19-9f6a-65c9820615e4" x="16.49" y="32.96" width="5.49" height="5.5"/>
      <rect class="uuid-d46b0678-c4ae-4e19-9f6a-65c9820615e4" x="16.49" y="27.47" width="5.49" height="5.49"/>
      <g>
        <path class="uuid-1b86ab7e-808a-401c-b211-c3d3be5ee77a" d="M65.94,21.97v-5.49h-5.5v-5.5h-5.49V5.49H21.98v5.49h-5.49v5.5h-5.5v5.49H5.5V54.94h5.49v10.99h10.99v5.49H54.95v-5.49h5.49v-5.5h5.5v-5.49h5.49V21.97h-5.49Zm0,10.99v16.49h-5.5v5.49h-5.49v5.49h-5.5v5.5H27.48v-5.5h-5.5v-5.49h-5.49v-5.49h-5.5V27.47h5.5v-5.5h5.49v-5.49h5.5v-5.5h21.97v5.5h5.5v5.49h5.49v5.5h5.5v5.49Z"/>
        <path class="uuid-1b86ab7e-808a-401c-b211-c3d3be5ee77a" d="M60.44,38.46v-10.99h-5.49v-5.5H27.48v5.5h-5.5v27.47h5.5v5.49h21.97v-5.49h5.5v-5.49h5.49v-10.99Zm-16.48,10.99v5.49h-10.99v-10.99h-5.49v-10.99h5.49v-5.49h10.99v5.49h5.49v16.49h-5.49Z"/>
      </g>
      <rect class="uuid-c5d4ec6c-aa2d-442e-83a9-c5bf3b9beb0a" x="65.94" y="49.45" width="5.49" height="5.49"/>
      <rect class="uuid-28825928-2aa7-4d6d-8546-d169a93f5e88" x="65.94" y="43.95" width="5.49" height="5.5"/>
      <rect class="uuid-c5d4ec6c-aa2d-442e-83a9-c5bf3b9beb0a" x="65.94" y="38.46" width="5.49" height="5.49"/>
      <rect class="uuid-28825928-2aa7-4d6d-8546-d169a93f5e88" x="65.94" y="32.96" width="5.49" height="5.5"/>
      <rect class="uuid-c5d4ec6c-aa2d-442e-83a9-c5bf3b9beb0a" x="65.94" y="27.47" width="5.49" height="5.49"/>
      <rect class="uuid-c5d4ec6c-aa2d-442e-83a9-c5bf3b9beb0a" x="65.94" y="21.97" width="5.49" height="5.5"/>
      <rect class="uuid-28825928-2aa7-4d6d-8546-d169a93f5e88" x="60.44" y="54.94" width="5.5" height="5.49"/>
      <rect class="uuid-c5d4ec6c-aa2d-442e-83a9-c5bf3b9beb0a" x="60.44" y="49.45" width="5.5" height="5.49"/>
      <rect class="uuid-28825928-2aa7-4d6d-8546-d169a93f5e88" x="54.95" y="60.43" width="5.49" height="5.5"/>
      <rect class="uuid-c5d4ec6c-aa2d-442e-83a9-c5bf3b9beb0a" x="54.95" y="54.94" width="5.49" height="5.49"/>
      <rect class="uuid-cd88936f-0cf7-4448-a254-e245c4339022" x="54.95" y="38.46" width="5.49" height="5.49"/>
      <rect class="uuid-cd88936f-0cf7-4448-a254-e245c4339022" x="54.95" y="32.96" width="5.49" height="5.5"/>
      <rect class="uuid-cd88936f-0cf7-4448-a254-e245c4339022" x="54.95" y="10.98" width="5.49" height="5.5"/>
      <rect class="uuid-cd88936f-0cf7-4448-a254-e245c4339022" x="49.45" y="65.93" width="5.5" height="5.49"/>
      <rect class="uuid-c5d4ec6c-aa2d-442e-83a9-c5bf3b9beb0a" x="49.45" y="60.43" width="5.5" height="5.5"/>
      <rect class="uuid-28825928-2aa7-4d6d-8546-d169a93f5e88" x="43.96" y="43.95" width="5.49" height="5.5"/>
      <rect class="uuid-ed69ba01-cadf-4bcd-a000-86bbe60d91a7" x="43.96" y="38.46" width="5.49" height="5.49"/>
      <rect class="uuid-ed69ba01-cadf-4bcd-a000-86bbe60d91a7" x="43.96" y="32.96" width="5.49" height="5.5"/>
      <rect class="uuid-28825928-2aa7-4d6d-8546-d169a93f5e88" x="43.96" y="16.48" width="5.49" height="5.49"/>
      <rect class="uuid-28825928-2aa7-4d6d-8546-d169a93f5e88" x="38.46" y="49.45" width="5.5" height="5.49"/>
      <rect class="uuid-ed69ba01-cadf-4bcd-a000-86bbe60d91a7" x="38.46" y="43.95" width="5.5" height="5.5"/>
      <rect class="uuid-ed69ba01-cadf-4bcd-a000-86bbe60d91a7" x="38.46" y="38.46" width="5.5" height="5.49"/>
      <rect class="uuid-ed69ba01-cadf-4bcd-a000-86bbe60d91a7" x="38.46" y="32.96" width="5.5" height="5.5"/>
      <rect class="uuid-ed69ba01-cadf-4bcd-a000-86bbe60d91a7" x="38.46" y="27.47" width="5.5" height="5.49"/>
      <rect class="uuid-28825928-2aa7-4d6d-8546-d169a93f5e88" x="38.46" y="16.48" width="5.5" height="5.49"/>
      <rect class="uuid-28825928-2aa7-4d6d-8546-d169a93f5e88" x="32.97" y="49.45" width="5.49" height="5.49"/>
      <rect class="uuid-ed69ba01-cadf-4bcd-a000-86bbe60d91a7" x="32.97" y="43.95" width="5.49" height="5.5"/>
      <rect class="uuid-ed69ba01-cadf-4bcd-a000-86bbe60d91a7" x="32.97" y="38.46" width="5.49" height="5.49"/>
      <rect class="uuid-ed69ba01-cadf-4bcd-a000-86bbe60d91a7" x="32.97" y="32.96" width="5.49" height="5.5"/>
      <rect class="uuid-ed69ba01-cadf-4bcd-a000-86bbe60d91a7" x="32.97" y="27.47" width="5.49" height="5.49"/>
      <rect class="uuid-28825928-2aa7-4d6d-8546-d169a93f5e88" x="32.97" y="16.48" width="5.49" height="5.49"/>
      <rect class="uuid-ed69ba01-cadf-4bcd-a000-86bbe60d91a7" x="27.48" y="38.46" width="5.49" height="5.49"/>
      <rect class="uuid-ed69ba01-cadf-4bcd-a000-86bbe60d91a7" x="27.48" y="32.96" width="5.49" height="5.5"/>
      <rect class="uuid-28825928-2aa7-4d6d-8546-d169a93f5e88" x="27.48" y="16.48" width="5.49" height="5.49"/>
      <rect class="uuid-28825928-2aa7-4d6d-8546-d169a93f5e88" x="21.98" y="21.97" width="5.5" height="5.5"/>
      <rect class="uuid-c5d4ec6c-aa2d-442e-83a9-c5bf3b9beb0a" x="16.49" y="60.43" width="5.49" height="5.5"/>
      <rect class="uuid-28825928-2aa7-4d6d-8546-d169a93f5e88" x="16.49" y="43.95" width="5.49" height="5.5"/>
      <rect class="uuid-28825928-2aa7-4d6d-8546-d169a93f5e88" x="16.49" y="38.46" width="5.49" height="5.49"/>
      <rect class="uuid-28825928-2aa7-4d6d-8546-d169a93f5e88" x="16.49" y="32.96" width="5.49" height="5.5"/>
      <rect class="uuid-28825928-2aa7-4d6d-8546-d169a93f5e88" x="16.49" y="27.47" width="5.49" height="5.49"/>
      <g>
        <rect class="uuid-ed69ba01-cadf-4bcd-a000-86bbe60d91a7" x="21.98" y="5.49" width="5.5" height="5.49"/>
        <rect class="uuid-ed69ba01-cadf-4bcd-a000-86bbe60d91a7" x="16.49" y="10.98" width="5.49" height="5.5"/>
        <rect class="uuid-ed69ba01-cadf-4bcd-a000-86bbe60d91a7" x="10.99" y="16.48" width="5.5" height="5.49"/>
        <polygon class="uuid-ed69ba01-cadf-4bcd-a000-86bbe60d91a7" points="5.5 27.47 5.5 32.96 5.5 38.46 5.5 43.95 5.5 49.45 10.99 49.45 10.99 43.95 10.99 38.46 10.99 32.96 10.99 27.47 10.99 21.97 5.5 21.97 5.5 27.47"/>
      </g>
      <rect class="uuid-28825928-2aa7-4d6d-8546-d169a93f5e88" x="60.44" y="43.95" width="5.5" height="5.5"/>
      <rect class="uuid-28825928-2aa7-4d6d-8546-d169a93f5e88" x="60.44" y="38.46" width="5.5" height="5.49"/>
      <rect class="uuid-28825928-2aa7-4d6d-8546-d169a93f5e88" x="60.44" y="32.96" width="5.5" height="5.5"/>
      <rect class="uuid-28825928-2aa7-4d6d-8546-d169a93f5e88" x="60.44" y="27.47" width="5.5" height="5.49"/>
      <rect class="uuid-28825928-2aa7-4d6d-8546-d169a93f5e88" x="54.95" y="49.45" width="5.49" height="5.49"/>
      <rect class="uuid-c5d4ec6c-aa2d-442e-83a9-c5bf3b9beb0a" x="54.95" y="38.46" width="5.49" height="5.49"/>
      <rect class="uuid-c5d4ec6c-aa2d-442e-83a9-c5bf3b9beb0a" x="54.95" y="32.96" width="5.49" height="5.5"/>
      <rect class="uuid-28825928-2aa7-4d6d-8546-d169a93f5e88" x="54.95" y="21.97" width="5.49" height="5.5"/>
      <rect class="uuid-28825928-2aa7-4d6d-8546-d169a93f5e88" x="49.45" y="54.94" width="5.5" height="5.49"/>
      <rect class="uuid-c5d4ec6c-aa2d-442e-83a9-c5bf3b9beb0a" x="49.45" y="49.45" width="5.5" height="5.49"/>
      <rect class="uuid-c5d4ec6c-aa2d-442e-83a9-c5bf3b9beb0a" x="49.45" y="27.47" width="5.5" height="5.49"/>
      <rect class="uuid-28825928-2aa7-4d6d-8546-d169a93f5e88" x="49.45" y="16.48" width="5.5" height="5.49"/>
      <rect class="uuid-28825928-2aa7-4d6d-8546-d169a93f5e88" x="43.96" y="60.43" width="5.49" height="5.5"/>
      <rect class="uuid-28825928-2aa7-4d6d-8546-d169a93f5e88" x="43.96" y="38.46" width="5.49" height="5.49"/>
      <rect class="uuid-28825928-2aa7-4d6d-8546-d169a93f5e88" x="43.96" y="32.96" width="5.49" height="5.5"/>
      <rect class="uuid-28825928-2aa7-4d6d-8546-d169a93f5e88" x="43.96" y="10.98" width="5.49" height="5.5"/>
      <rect class="uuid-28825928-2aa7-4d6d-8546-d169a93f5e88" x="38.46" y="60.43" width="5.5" height="5.5"/>
      <rect class="uuid-28825928-2aa7-4d6d-8546-d169a93f5e88" x="38.46" y="43.95" width="5.5" height="5.5"/>
      <rect class="uuid-c5d4ec6c-aa2d-442e-83a9-c5bf3b9beb0a" x="38.46" y="38.46" width="5.5" height="5.49"/>
      <rect class="uuid-c5d4ec6c-aa2d-442e-83a9-c5bf3b9beb0a" x="38.46" y="32.96" width="5.5" height="5.5"/>
      <rect class="uuid-28825928-2aa7-4d6d-8546-d169a93f5e88" x="38.46" y="27.47" width="5.5" height="5.49"/>
      <rect class="uuid-28825928-2aa7-4d6d-8546-d169a93f5e88" x="38.46" y="10.98" width="5.5" height="5.5"/>
      <rect class="uuid-28825928-2aa7-4d6d-8546-d169a93f5e88" x="32.97" y="60.43" width="5.49" height="5.5"/>
      <rect class="uuid-28825928-2aa7-4d6d-8546-d169a93f5e88" x="32.97" y="43.95" width="5.49" height="5.5"/>
      <rect class="uuid-c5d4ec6c-aa2d-442e-83a9-c5bf3b9beb0a" x="32.97" y="38.46" width="5.49" height="5.49"/>
      <rect class="uuid-28825928-2aa7-4d6d-8546-d169a93f5e88" x="32.97" y="27.47" width="5.49" height="5.49"/>
      <rect class="uuid-28825928-2aa7-4d6d-8546-d169a93f5e88" x="32.97" y="10.98" width="5.49" height="5.5"/>
      <rect class="uuid-28825928-2aa7-4d6d-8546-d169a93f5e88" x="27.48" y="60.43" width="5.49" height="5.5"/>
      <rect class="uuid-c5d4ec6c-aa2d-442e-83a9-c5bf3b9beb0a" x="27.48" y="54.94" width="5.49" height="5.49"/>
      <rect class="uuid-28825928-2aa7-4d6d-8546-d169a93f5e88" x="27.48" y="38.46" width="5.49" height="5.49"/>
      <rect class="uuid-28825928-2aa7-4d6d-8546-d169a93f5e88" x="27.48" y="32.96" width="5.49" height="5.5"/>
      <rect class="uuid-28825928-2aa7-4d6d-8546-d169a93f5e88" x="27.48" y="10.98" width="5.49" height="5.5"/>
      <rect class="uuid-28825928-2aa7-4d6d-8546-d169a93f5e88" x="21.98" y="54.94" width="5.5" height="5.49"/>
      <rect class="uuid-28825928-2aa7-4d6d-8546-d169a93f5e88" x="21.98" y="16.48" width="5.5" height="5.49"/>
      <rect class="uuid-28825928-2aa7-4d6d-8546-d169a93f5e88" x="16.49" y="49.45" width="5.49" height="5.49"/>
      <g>
        <rect class="uuid-8d3aaa83-5267-4017-85be-f6cd8616c8b8" x="65.94" y="43.95" width="5.49" height="5.5"/>
        <rect class="uuid-8d3aaa83-5267-4017-85be-f6cd8616c8b8" x="65.94" y="32.96" width="5.49" height="5.5"/>
        <rect class="uuid-8d3aaa83-5267-4017-85be-f6cd8616c8b8" x="60.44" y="54.94" width="5.5" height="5.49"/>
        <rect class="uuid-8d3aaa83-5267-4017-85be-f6cd8616c8b8" x="54.95" y="60.43" width="5.49" height="5.5"/>
        <rect class="uuid-8d3aaa83-5267-4017-85be-f6cd8616c8b8" x="43.96" y="43.95" width="5.49" height="5.5"/>
        <polygon class="uuid-8d3aaa83-5267-4017-85be-f6cd8616c8b8" points="38.46 16.48 32.97 16.48 27.48 16.48 27.48 21.97 32.97 21.97 38.46 21.97 43.96 21.97 49.45 21.97 49.45 16.48 43.96 16.48 38.46 16.48"/>
        <polygon class="uuid-8d3aaa83-5267-4017-85be-f6cd8616c8b8" points="32.97 49.45 32.97 54.94 38.46 54.94 43.96 54.94 43.96 49.45 38.46 49.45 32.97 49.45"/>
        <rect class="uuid-8d3aaa83-5267-4017-85be-f6cd8616c8b8" x="21.98" y="21.97" width="5.5" height="5.5"/>
        <polygon class="uuid-8d3aaa83-5267-4017-85be-f6cd8616c8b8" points="16.49 32.96 16.49 38.46 16.49 43.95 16.49 49.45 21.98 49.45 21.98 43.95 21.98 38.46 21.98 32.96 21.98 27.47 16.49 27.47 16.49 32.96"/>
      </g>
      <rect class="uuid-28825928-2aa7-4d6d-8546-d169a93f5e88" x="16.49" y="21.97" width="5.49" height="5.5"/>
      <rect class="uuid-28825928-2aa7-4d6d-8546-d169a93f5e88" x="10.99" y="43.95" width="5.5" height="5.5"/>
      <rect class="uuid-28825928-2aa7-4d6d-8546-d169a93f5e88" x="10.99" y="38.46" width="5.5" height="5.49"/>
      <rect class="uuid-28825928-2aa7-4d6d-8546-d169a93f5e88" x="10.99" y="32.96" width="5.5" height="5.5"/>
      <rect class="uuid-28825928-2aa7-4d6d-8546-d169a93f5e88" x="10.99" y="27.47" width="5.5" height="5.49"/>
      <g>
        <polygon class="uuid-cb97f23e-591e-4b0f-83fb-8f9a51560473" points="60.44 32.96 60.44 38.46 60.44 43.95 60.44 49.45 65.94 49.45 65.94 43.95 65.94 38.46 65.94 32.96 65.94 27.47 60.44 27.47 60.44 32.96"/>
        <rect class="uuid-cb97f23e-591e-4b0f-83fb-8f9a51560473" x="54.95" y="49.45" width="5.49" height="5.49"/>
        <rect class="uuid-cb97f23e-591e-4b0f-83fb-8f9a51560473" x="54.95" y="21.97" width="5.49" height="5.5"/>
        <rect class="uuid-cb97f23e-591e-4b0f-83fb-8f9a51560473" x="49.45" y="54.94" width="5.5" height="5.49"/>
        <rect class="uuid-cb97f23e-591e-4b0f-83fb-8f9a51560473" x="49.45" y="16.48" width="5.5" height="5.49"/>
        <polygon class="uuid-cb97f23e-591e-4b0f-83fb-8f9a51560473" points="38.46 60.43 32.97 60.43 27.48 60.43 27.48 65.93 32.97 65.93 38.46 65.93 43.96 65.93 49.45 65.93 49.45 60.43 43.96 60.43 38.46 60.43"/>
        <polygon class="uuid-cb97f23e-591e-4b0f-83fb-8f9a51560473" points="38.46 16.48 43.96 16.48 49.45 16.48 49.45 10.98 43.96 10.98 38.46 10.98 32.97 10.98 27.48 10.98 27.48 16.48 32.97 16.48 38.46 16.48"/>
        <rect class="uuid-cb97f23e-591e-4b0f-83fb-8f9a51560473" x="21.98" y="54.94" width="5.5" height="5.49"/>
        <rect class="uuid-cb97f23e-591e-4b0f-83fb-8f9a51560473" x="21.98" y="16.48" width="5.5" height="5.49"/>
        <rect class="uuid-cb97f23e-591e-4b0f-83fb-8f9a51560473" x="16.49" y="49.45" width="5.49" height="5.49"/>
        <rect class="uuid-cb97f23e-591e-4b0f-83fb-8f9a51560473" x="16.49" y="21.97" width="5.49" height="5.5"/>
        <polygon class="uuid-cb97f23e-591e-4b0f-83fb-8f9a51560473" points="16.49 38.46 16.49 32.96 16.49 27.47 10.99 27.47 10.99 32.96 10.99 38.46 10.99 43.95 10.99 49.45 16.49 49.45 16.49 43.95 16.49 38.46"/>
        <polygon class="uuid-cb97f23e-591e-4b0f-83fb-8f9a51560473" points="71.43 21.97 71.43 27.47 71.43 32.96 71.43 38.46 71.43 43.95 71.43 49.45 71.43 54.94 76.93 54.94 76.93 49.45 76.93 43.95 76.93 38.46 76.93 32.96 76.93 27.47 76.93 21.97 71.43 21.97"/>
        <rect class="uuid-cb97f23e-591e-4b0f-83fb-8f9a51560473" x="65.94" y="54.94" width="5.49" height="5.49"/>
        <rect class="uuid-cb97f23e-591e-4b0f-83fb-8f9a51560473" x="65.94" y="16.48" width="5.49" height="5.49"/>
        <rect class="uuid-cb97f23e-591e-4b0f-83fb-8f9a51560473" x="60.44" y="60.43" width="5.5" height="5.5"/>
        <rect class="uuid-cb97f23e-591e-4b0f-83fb-8f9a51560473" x="60.44" y="10.98" width="5.5" height="5.5"/>
        <rect class="uuid-cb97f23e-591e-4b0f-83fb-8f9a51560473" x="54.95" y="65.93" width="5.49" height="5.49"/>
        <rect class="uuid-cb97f23e-591e-4b0f-83fb-8f9a51560473" x="54.95" y="5.49" width="5.49" height="5.49"/>
        <polygon class="uuid-cb97f23e-591e-4b0f-83fb-8f9a51560473" points="43.96 71.42 38.46 71.42 32.97 71.42 27.48 71.42 21.98 71.42 21.98 76.92 27.48 76.92 32.97 76.92 38.46 76.92 43.96 76.92 49.45 76.92 54.95 76.92 54.95 71.42 49.45 71.42 43.96 71.42"/>
        <polygon class="uuid-cb97f23e-591e-4b0f-83fb-8f9a51560473" points="32.97 5.49 38.46 5.49 43.96 5.49 49.45 5.49 54.95 5.49 54.95 0 49.45 0 43.96 0 38.46 0 32.97 0 27.48 0 21.98 0 21.98 5.49 27.48 5.49 32.97 5.49"/>
        <rect class="uuid-cb97f23e-591e-4b0f-83fb-8f9a51560473" x="16.49" y="65.93" width="5.49" height="5.49"/>
        <rect class="uuid-cb97f23e-591e-4b0f-83fb-8f9a51560473" x="16.49" y="5.49" width="5.49" height="5.49"/>
        <rect class="uuid-cb97f23e-591e-4b0f-83fb-8f9a51560473" x="10.99" y="60.43" width="5.5" height="5.5"/>
        <rect class="uuid-cb97f23e-591e-4b0f-83fb-8f9a51560473" x="10.99" y="10.98" width="5.5" height="5.5"/>
        <rect class="uuid-cb97f23e-591e-4b0f-83fb-8f9a51560473" x="5.5" y="54.94" width="5.49" height="5.49"/>
        <rect class="uuid-cb97f23e-591e-4b0f-83fb-8f9a51560473" x="5.5" y="16.48" width="5.49" height="5.49"/>
        <polygon class="uuid-cb97f23e-591e-4b0f-83fb-8f9a51560473" points="5.5 43.95 5.5 38.46 5.5 32.96 5.5 27.47 5.5 21.97 0 21.97 0 27.47 0 32.96 0 38.46 0 43.95 0 49.45 0 54.94 5.5 54.94 5.5 49.45 5.5 43.95"/>
      </g>
    </g>
  </g>
</svg>