<?xml version="1.0" encoding="UTF-8"?>
<svg id="uuid-ff9ce2e9-f4cf-4cd8-9e60-5c316b42bd68" data-name="Capa 2" xmlns="http://www.w3.org/2000/svg" viewBox="0 0 54.95 71.42">
  <defs>
    <style>
      .uuid-db0638a9-25a5-449f-a7b9-c10b393b799f {
        fill: #f42a5a;
      }

      .uuid-ba7a8be5-8f5e-481e-ab78-26dac88dead8 {
        fill: #ffaf7c;
      }

      .uuid-f13776c4-1dea-4a8e-ba64-e1b87f5564b8 {
        fill: #fff;
      }

      .uuid-99e4526d-3e05-4ab8-84dd-0b27b679456d {
        fill: #f07f56;
      }

      .uuid-8a85607d-b39a-4345-8a47-a1d8ba08cdf9 {
        fill: #ffc29c;
      }

      .uuid-9d651b64-952f-4a6e-8684-60c9316cbe30 {
        fill: #ff6a85;
      }

      .uuid-a081c315-cc75-454c-9461-3448f035c1f2 {
        fill: #473d61;
      }
    </style>
  </defs>
  <g id="uuid-bbb8c407-8ce4-458a-9572-33d71f97ac65" data-name="OBJECTS">
    <g>
      <rect class="uuid-99e4526d-3e05-4ab8-84dd-0b27b679456d" x="43.96" y="60.43" width="5.49" height="5.5"/>
      <rect class="uuid-f13776c4-1dea-4a8e-ba64-e1b87f5564b8" x="43.96" y="54.94" width="5.49" height="5.49"/>
      <rect class="uuid-99e4526d-3e05-4ab8-84dd-0b27b679456d" x="38.46" y="60.43" width="5.5" height="5.5"/>
      <rect class="uuid-f13776c4-1dea-4a8e-ba64-e1b87f5564b8" x="38.46" y="54.94" width="5.5" height="5.49"/>
      <rect class="uuid-f13776c4-1dea-4a8e-ba64-e1b87f5564b8" x="38.46" y="16.48" width="5.5" height="5.49"/>
      <rect class="uuid-99e4526d-3e05-4ab8-84dd-0b27b679456d" x="32.97" y="60.43" width="5.49" height="5.5"/>
      <rect class="uuid-f13776c4-1dea-4a8e-ba64-e1b87f5564b8" x="32.97" y="54.94" width="5.49" height="5.49"/>
      <rect class="uuid-f13776c4-1dea-4a8e-ba64-e1b87f5564b8" x="32.97" y="16.48" width="5.49" height="5.49"/>
      <rect class="uuid-99e4526d-3e05-4ab8-84dd-0b27b679456d" x="27.48" y="60.43" width="5.49" height="5.5"/>
      <rect class="uuid-f13776c4-1dea-4a8e-ba64-e1b87f5564b8" x="27.48" y="54.94" width="5.49" height="5.49"/>
      <rect class="uuid-f13776c4-1dea-4a8e-ba64-e1b87f5564b8" x="27.48" y="16.48" width="5.49" height="5.49"/>
      <rect class="uuid-99e4526d-3e05-4ab8-84dd-0b27b679456d" x="21.98" y="60.43" width="5.5" height="5.5"/>
      <rect class="uuid-f13776c4-1dea-4a8e-ba64-e1b87f5564b8" x="21.98" y="54.94" width="5.5" height="5.49"/>
      <rect class="uuid-f13776c4-1dea-4a8e-ba64-e1b87f5564b8" x="21.98" y="16.48" width="5.5" height="5.49"/>
      <rect class="uuid-f13776c4-1dea-4a8e-ba64-e1b87f5564b8" x="16.49" y="54.94" width="5.49" height="5.49"/>
      <rect class="uuid-f13776c4-1dea-4a8e-ba64-e1b87f5564b8" x="16.49" y="16.48" width="5.49" height="5.49"/>
      <path class="uuid-ba7a8be5-8f5e-481e-ab78-26dac88dead8" d="M43.96,5.49H10.99v60.44h10.99v-5.5h-5.49v-5.49H49.45V5.49h-5.49Zm0,16.48H16.49v-5.49h27.47v5.49Z"/>
      <rect class="uuid-99e4526d-3e05-4ab8-84dd-0b27b679456d" x="5.5" y="54.94" width="5.49" height="5.49"/>
      <rect class="uuid-99e4526d-3e05-4ab8-84dd-0b27b679456d" x="5.5" y="49.45" width="5.49" height="5.49"/>
      <rect class="uuid-99e4526d-3e05-4ab8-84dd-0b27b679456d" x="5.5" y="43.95" width="5.49" height="5.5"/>
      <rect class="uuid-99e4526d-3e05-4ab8-84dd-0b27b679456d" x="5.5" y="38.46" width="5.49" height="5.49"/>
      <rect class="uuid-99e4526d-3e05-4ab8-84dd-0b27b679456d" x="5.5" y="32.96" width="5.49" height="5.5"/>
      <rect class="uuid-99e4526d-3e05-4ab8-84dd-0b27b679456d" x="5.5" y="27.47" width="5.49" height="5.49"/>
      <rect class="uuid-99e4526d-3e05-4ab8-84dd-0b27b679456d" x="5.5" y="21.97" width="5.49" height="5.5"/>
      <rect class="uuid-99e4526d-3e05-4ab8-84dd-0b27b679456d" x="5.5" y="16.48" width="5.49" height="5.49"/>
      <rect class="uuid-99e4526d-3e05-4ab8-84dd-0b27b679456d" x="5.5" y="10.98" width="5.49" height="5.5"/>
      <rect class="uuid-8a85607d-b39a-4345-8a47-a1d8ba08cdf9" x="43.96" y="5.49" width="5.49" height="5.49"/>
      <rect class="uuid-8a85607d-b39a-4345-8a47-a1d8ba08cdf9" x="38.46" y="32.96" width="5.5" height="5.5"/>
      <rect class="uuid-8a85607d-b39a-4345-8a47-a1d8ba08cdf9" x="27.48" y="43.95" width="5.49" height="5.5"/>
      <rect class="uuid-8a85607d-b39a-4345-8a47-a1d8ba08cdf9" x="21.98" y="5.49" width="5.5" height="5.49"/>
      <rect class="uuid-9d651b64-952f-4a6e-8684-60c9316cbe30" x="16.49" y="65.93" width="5.49" height="5.49"/>
      <rect class="uuid-9d651b64-952f-4a6e-8684-60c9316cbe30" x="16.49" y="60.43" width="5.49" height="5.5"/>
      <rect class="uuid-db0638a9-25a5-449f-a7b9-c10b393b799f" x="16.49" y="54.94" width="5.49" height="5.49"/>
      <rect class="uuid-8a85607d-b39a-4345-8a47-a1d8ba08cdf9" x="16.49" y="27.47" width="5.49" height="5.49"/>
      <g>
        <g>
          <polygon class="uuid-a081c315-cc75-454c-9461-3448f035c1f2" points="43.96 65.93 38.46 65.93 32.97 65.93 27.48 65.93 21.98 65.93 21.98 71.42 27.48 71.42 32.97 71.42 38.46 71.42 43.96 71.42 49.45 71.42 49.45 65.93 43.96 65.93"/>
          <rect class="uuid-a081c315-cc75-454c-9461-3448f035c1f2" x="10.99" y="65.93" width="5.5" height="5.49"/>
        </g>
        <g>
          <polygon class="uuid-a081c315-cc75-454c-9461-3448f035c1f2" points="49.45 5.49 49.45 10.98 49.45 16.48 49.45 21.97 49.45 27.47 49.45 32.96 49.45 38.46 49.45 43.95 49.45 49.45 49.45 54.94 49.45 60.43 49.45 65.93 54.95 65.93 54.95 60.43 54.95 54.94 54.95 49.45 54.95 43.95 54.95 38.46 54.95 32.96 54.95 27.47 54.95 21.97 54.95 16.48 54.95 10.98 54.95 5.49 49.45 5.49"/>
          <polygon class="uuid-a081c315-cc75-454c-9461-3448f035c1f2" points="43.96 0 38.46 0 32.97 0 27.48 0 21.98 0 16.49 0 10.99 0 10.99 5.49 16.49 5.49 21.98 5.49 27.48 5.49 32.97 5.49 38.46 5.49 43.96 5.49 49.45 5.49 49.45 0 43.96 0"/>
        </g>
        <rect class="uuid-a081c315-cc75-454c-9461-3448f035c1f2" x="5.5" y="60.43" width="5.49" height="5.5"/>
        <rect class="uuid-a081c315-cc75-454c-9461-3448f035c1f2" x="5.5" y="5.49" width="5.49" height="5.49"/>
        <polygon class="uuid-a081c315-cc75-454c-9461-3448f035c1f2" points="0 10.98 0 16.48 0 21.97 0 27.47 0 32.96 0 38.46 0 43.95 0 49.45 0 54.94 0 60.43 5.5 60.43 5.5 54.94 5.5 49.45 5.5 43.95 5.5 38.46 5.5 32.96 5.5 27.47 5.5 21.97 5.5 16.48 5.5 10.98 0 10.98"/>
      </g>
    </g>
  </g>
</svg>