<?xml version="1.0" encoding="UTF-8"?>
<svg id="uuid-2a86f803-2c27-44fb-92a6-3cae92f8944e" data-name="Capa 2" xmlns="http://www.w3.org/2000/svg" viewBox="0 0 65.93 76.92">
  <defs>
    <style>
      .uuid-ff51827c-b9b3-42eb-8c60-7e3b134ac9c4 {
        fill: #eae8fc;
      }

      .uuid-dc60e49d-248a-4f83-b696-2efd686ead24 {
        fill: #ffd393;
      }

      .uuid-e965b4c6-d8e5-470e-a5cf-fae1c2627b6b {
        fill: #a15242;
      }

      .uuid-df2c1c43-a436-4e8e-9803-93ec6a83d99a {
        fill: #b86554;
      }

      .uuid-c818fe7f-7191-4b6c-a3dd-fef58288e094 {
        fill: #c47565;
      }

      .uuid-b252ab63-818d-4373-986d-e70858a523c8 {
        fill: #d48677;
      }

      .uuid-a5c2bfeb-9ac1-4543-97f7-f14c64de7314 {
        fill: #473d61;
      }
    </style>
  </defs>
  <g id="uuid-5433d2fc-b8b7-4db7-97ef-2b484f50b6fc" data-name="OBJECTS">
    <g>
      <rect class="uuid-ff51827c-b9b3-42eb-8c60-7e3b134ac9c4" x="43.95" y="43.96" width="5.5" height="5.49"/>
      <rect class="uuid-ff51827c-b9b3-42eb-8c60-7e3b134ac9c4" x="43.95" y="38.46" width="5.5" height="5.5"/>
      <rect class="uuid-ff51827c-b9b3-42eb-8c60-7e3b134ac9c4" x="43.95" y="32.97" width="5.5" height="5.49"/>
      <rect class="uuid-ff51827c-b9b3-42eb-8c60-7e3b134ac9c4" x="43.95" y="27.47" width="5.5" height="5.5"/>
      <rect class="uuid-ff51827c-b9b3-42eb-8c60-7e3b134ac9c4" x="43.95" y="21.98" width="5.5" height="5.49"/>
      <rect class="uuid-ff51827c-b9b3-42eb-8c60-7e3b134ac9c4" x="43.95" y="16.48" width="5.5" height="5.5"/>
      <rect class="uuid-ff51827c-b9b3-42eb-8c60-7e3b134ac9c4" x="38.46" y="49.45" width="5.49" height="5.49"/>
      <rect class="uuid-ff51827c-b9b3-42eb-8c60-7e3b134ac9c4" x="38.46" y="16.48" width="5.49" height="5.5"/>
      <rect class="uuid-ff51827c-b9b3-42eb-8c60-7e3b134ac9c4" x="32.96" y="54.94" width="5.5" height="5.5"/>
      <rect class="uuid-ff51827c-b9b3-42eb-8c60-7e3b134ac9c4" x="32.96" y="16.48" width="5.5" height="5.5"/>
      <rect class="uuid-ff51827c-b9b3-42eb-8c60-7e3b134ac9c4" x="27.47" y="54.94" width="5.49" height="5.5"/>
      <rect class="uuid-ff51827c-b9b3-42eb-8c60-7e3b134ac9c4" x="27.47" y="16.48" width="5.49" height="5.5"/>
      <rect class="uuid-ff51827c-b9b3-42eb-8c60-7e3b134ac9c4" x="21.97" y="49.45" width="5.5" height="5.49"/>
      <rect class="uuid-ff51827c-b9b3-42eb-8c60-7e3b134ac9c4" x="21.97" y="16.48" width="5.5" height="5.5"/>
      <rect class="uuid-ff51827c-b9b3-42eb-8c60-7e3b134ac9c4" x="16.48" y="43.96" width="5.49" height="5.49"/>
      <rect class="uuid-ff51827c-b9b3-42eb-8c60-7e3b134ac9c4" x="16.48" y="38.46" width="5.49" height="5.5"/>
      <rect class="uuid-ff51827c-b9b3-42eb-8c60-7e3b134ac9c4" x="16.48" y="32.97" width="5.49" height="5.49"/>
      <rect class="uuid-ff51827c-b9b3-42eb-8c60-7e3b134ac9c4" x="16.48" y="27.47" width="5.49" height="5.5"/>
      <rect class="uuid-ff51827c-b9b3-42eb-8c60-7e3b134ac9c4" x="16.48" y="21.98" width="5.49" height="5.49"/>
      <rect class="uuid-ff51827c-b9b3-42eb-8c60-7e3b134ac9c4" x="16.48" y="16.48" width="5.49" height="5.5"/>
      <rect class="uuid-dc60e49d-248a-4f83-b696-2efd686ead24" x="10.98" y="49.45" width="5.5" height="5.49"/>
      <rect class="uuid-df2c1c43-a436-4e8e-9803-93ec6a83d99a" x="54.94" y="16.48" width="5.49" height="5.5"/>
      <rect class="uuid-df2c1c43-a436-4e8e-9803-93ec6a83d99a" x="49.45" y="43.96" width="5.49" height="5.49"/>
      <rect class="uuid-df2c1c43-a436-4e8e-9803-93ec6a83d99a" x="49.45" y="38.46" width="5.49" height="5.5"/>
      <g>
        <polygon class="uuid-c818fe7f-7191-4b6c-a3dd-fef58288e094" points="54.94 5.49 54.94 10.99 49.45 10.99 43.95 10.99 38.46 10.99 38.46 5.49 32.96 5.49 27.47 5.49 27.47 10.99 21.97 10.99 16.48 10.99 10.98 10.99 10.98 5.49 5.49 5.49 5.49 10.99 5.49 16.48 5.49 21.98 10.98 21.98 10.98 27.47 10.98 32.97 10.98 38.46 10.98 43.96 10.98 49.45 16.48 49.45 16.48 43.96 16.48 38.46 16.48 32.97 16.48 27.47 16.48 21.98 16.48 16.48 21.97 16.48 27.47 16.48 32.96 16.48 38.46 16.48 43.95 16.48 49.45 16.48 49.45 21.98 49.45 27.47 49.45 32.97 49.45 38.46 49.45 43.96 49.45 49.45 54.94 49.45 54.94 43.96 54.94 38.46 54.94 32.97 54.94 27.47 54.94 21.98 60.43 21.98 60.43 16.48 60.43 10.99 60.43 5.49 54.94 5.49"/>
        <polygon class="uuid-c818fe7f-7191-4b6c-a3dd-fef58288e094" points="43.95 54.94 38.46 54.94 38.46 60.44 43.95 60.44 49.45 60.44 49.45 54.94 49.45 49.45 43.95 49.45 43.95 54.94"/>
        <polygon class="uuid-c818fe7f-7191-4b6c-a3dd-fef58288e094" points="27.47 60.44 27.47 65.93 27.47 71.43 32.96 71.43 38.46 71.43 38.46 65.93 38.46 60.44 32.96 60.44 27.47 60.44"/>
        <polygon class="uuid-c818fe7f-7191-4b6c-a3dd-fef58288e094" points="27.47 54.94 32.96 54.94 38.46 54.94 38.46 49.45 43.95 49.45 43.95 43.96 43.95 38.46 43.95 32.97 43.95 27.47 43.95 21.98 38.46 21.98 32.96 21.98 27.47 21.98 21.97 21.98 21.97 27.47 21.97 32.97 21.97 38.46 21.97 43.96 21.97 49.45 27.47 49.45 27.47 54.94"/>
        <polygon class="uuid-c818fe7f-7191-4b6c-a3dd-fef58288e094" points="21.97 54.94 21.97 49.45 16.48 49.45 16.48 54.94 16.48 60.44 21.97 60.44 27.47 60.44 27.47 54.94 21.97 54.94"/>
      </g>
      <rect class="uuid-df2c1c43-a436-4e8e-9803-93ec6a83d99a" x="49.45" y="27.47" width="5.49" height="5.5"/>
      <rect class="uuid-df2c1c43-a436-4e8e-9803-93ec6a83d99a" x="43.95" y="54.94" width="5.5" height="5.5"/>
      <rect class="uuid-df2c1c43-a436-4e8e-9803-93ec6a83d99a" x="32.96" y="65.93" width="5.5" height="5.5"/>
      <g>
        <rect class="uuid-e965b4c6-d8e5-470e-a5cf-fae1c2627b6b" x="43.95" y="49.45" width="5.5" height="5.49"/>
        <rect class="uuid-e965b4c6-d8e5-470e-a5cf-fae1c2627b6b" x="38.46" y="54.94" width="5.49" height="5.5"/>
        <rect class="uuid-e965b4c6-d8e5-470e-a5cf-fae1c2627b6b" x="32.96" y="60.44" width="5.5" height="5.49"/>
      </g>
      <rect class="uuid-df2c1c43-a436-4e8e-9803-93ec6a83d99a" x="32.96" y="5.49" width="5.5" height="5.5"/>
      <rect class="uuid-b252ab63-818d-4373-986d-e70858a523c8" x="27.47" y="5.49" width="5.49" height="5.5"/>
      <rect class="uuid-df2c1c43-a436-4e8e-9803-93ec6a83d99a" x="21.97" y="54.94" width="5.5" height="5.5"/>
      <polygon class="uuid-e965b4c6-d8e5-470e-a5cf-fae1c2627b6b" points="38.46 21.98 32.96 21.98 27.47 21.98 21.97 21.98 21.97 27.47 21.97 32.97 21.97 38.46 21.97 43.96 21.97 49.45 27.47 49.45 27.47 43.96 27.47 38.46 27.47 32.97 27.47 27.47 32.96 27.47 38.46 27.47 43.95 27.47 43.95 21.98 38.46 21.98"/>
      <rect class="uuid-b252ab63-818d-4373-986d-e70858a523c8" x="10.98" y="38.46" width="5.5" height="5.5"/>
      <rect class="uuid-b252ab63-818d-4373-986d-e70858a523c8" x="10.98" y="32.97" width="5.5" height="5.49"/>
      <rect class="uuid-b252ab63-818d-4373-986d-e70858a523c8" x="10.98" y="27.47" width="5.5" height="5.5"/>
      <rect class="uuid-b252ab63-818d-4373-986d-e70858a523c8" x="10.98" y="21.98" width="5.5" height="5.49"/>
      <rect class="uuid-b252ab63-818d-4373-986d-e70858a523c8" x="5.49" y="16.48" width="5.49" height="5.5"/>
      <rect class="uuid-b252ab63-818d-4373-986d-e70858a523c8" x="5.49" y="10.99" width="5.49" height="5.49"/>
      <g>
        <polygon class="uuid-a5c2bfeb-9ac1-4543-97f7-f14c64de7314" points="60.43 5.49 60.43 10.99 60.43 16.48 60.43 21.98 65.93 21.98 65.93 16.48 65.93 10.99 65.93 5.49 60.43 5.49"/>
        <polygon class="uuid-a5c2bfeb-9ac1-4543-97f7-f14c64de7314" points="54.94 27.47 54.94 32.97 54.94 38.46 54.94 43.96 54.94 49.45 49.45 49.45 49.45 54.94 49.45 60.44 54.94 60.44 54.94 54.94 60.43 54.94 60.43 49.45 60.43 43.96 60.43 38.46 60.43 32.97 60.43 27.47 60.43 21.98 54.94 21.98 54.94 27.47"/>
        <rect class="uuid-a5c2bfeb-9ac1-4543-97f7-f14c64de7314" x="54.94" width="5.49" height="5.49"/>
        <polygon class="uuid-a5c2bfeb-9ac1-4543-97f7-f14c64de7314" points="38.46 60.44 38.46 65.93 38.46 71.43 43.95 71.43 43.95 65.93 49.45 65.93 49.45 60.44 43.95 60.44 38.46 60.44"/>
        <polygon class="uuid-a5c2bfeb-9ac1-4543-97f7-f14c64de7314" points="43.95 10.99 49.45 10.99 54.94 10.99 54.94 5.49 49.45 5.49 43.95 5.49 38.46 5.49 38.46 10.99 43.95 10.99"/>
        <polygon class="uuid-a5c2bfeb-9ac1-4543-97f7-f14c64de7314" points="38.46 5.49 38.46 0 32.96 0 27.47 0 27.47 5.49 32.96 5.49 38.46 5.49"/>
        <polygon class="uuid-a5c2bfeb-9ac1-4543-97f7-f14c64de7314" points="27.47 71.43 27.47 76.92 32.96 76.92 38.46 76.92 38.46 71.43 32.96 71.43 27.47 71.43"/>
        <polygon class="uuid-a5c2bfeb-9ac1-4543-97f7-f14c64de7314" points="27.47 60.44 21.97 60.44 16.48 60.44 16.48 65.93 21.97 65.93 21.97 71.43 27.47 71.43 27.47 65.93 27.47 60.44"/>
        <polygon class="uuid-a5c2bfeb-9ac1-4543-97f7-f14c64de7314" points="16.48 49.45 10.98 49.45 10.98 43.96 10.98 38.46 10.98 32.97 10.98 27.47 10.98 21.98 5.49 21.98 5.49 27.47 5.49 32.97 5.49 38.46 5.49 43.96 5.49 49.45 5.49 54.94 10.98 54.94 10.98 60.44 16.48 60.44 16.48 54.94 16.48 49.45"/>
        <polygon class="uuid-a5c2bfeb-9ac1-4543-97f7-f14c64de7314" points="16.48 10.99 21.97 10.99 27.47 10.99 27.47 5.49 21.97 5.49 16.48 5.49 10.98 5.49 10.98 10.99 16.48 10.99"/>
        <rect class="uuid-a5c2bfeb-9ac1-4543-97f7-f14c64de7314" x="5.49" width="5.49" height="5.49"/>
        <polygon class="uuid-a5c2bfeb-9ac1-4543-97f7-f14c64de7314" points="5.49 10.99 5.49 5.49 0 5.49 0 10.99 0 16.48 0 21.98 5.49 21.98 5.49 16.48 5.49 10.99"/>
      </g>
    </g>
  </g>
</svg>