<?xml version="1.0" encoding="UTF-8"?>
<svg id="uuid-f1bfec2f-0b56-4cd3-9df5-9ba6e95e94ad" data-name="Capa 2" xmlns="http://www.w3.org/2000/svg" viewBox="0 0 60.44 71.43">
  <defs>
    <style>
      .uuid-6159b9e8-3a1b-43bd-bd51-644a03a734b1 {
        fill: #eae8fc;
      }

      .uuid-13a8360c-19e2-4f47-ae96-70b645d6bb32 {
        fill: #fff;
      }

      .uuid-b1250285-aac9-40b1-893d-b2c5f32feb02 {
        fill: #c0c0f3;
      }

      .uuid-b7a3a5d3-c1d3-4cf9-a1cc-9d8450cbb3fc {
        fill: #dbd7fc;
      }

      .uuid-00c21798-107b-48a9-a26f-8df9e5f29ae3 {
        fill: #473d61;
      }
    </style>
  </defs>
  <g id="uuid-d54b906e-88ec-4d6a-9fc1-c3fe7e343384" data-name="OBJECTS">
    <g>
      <g>
        <polygon class="uuid-b7a3a5d3-c1d3-4cf9-a1cc-9d8450cbb3fc" points="49.45 27.47 43.95 27.47 43.95 32.96 43.95 38.46 49.45 38.46 49.45 32.96 54.94 32.96 54.94 27.47 49.45 27.47"/>
        <polygon class="uuid-b7a3a5d3-c1d3-4cf9-a1cc-9d8450cbb3fc" points="38.46 43.95 38.46 49.45 38.46 54.94 43.95 54.94 43.95 49.45 49.45 49.45 49.45 43.95 43.95 43.95 43.95 38.46 38.46 38.46 38.46 43.95"/>
        <rect class="uuid-b7a3a5d3-c1d3-4cf9-a1cc-9d8450cbb3fc" x="32.96" y="54.94" width="5.5" height="5.5"/>
      </g>
      <g>
        <polygon class="uuid-b1250285-aac9-40b1-893d-b2c5f32feb02" points="49.45 32.96 49.45 38.46 49.45 43.95 49.45 49.45 43.95 49.45 43.95 54.94 38.46 54.94 38.46 60.44 43.95 60.44 49.45 60.44 49.45 54.94 54.94 54.94 54.94 49.45 54.94 43.95 54.94 38.46 54.94 32.96 49.45 32.96"/>
        <polygon class="uuid-b1250285-aac9-40b1-893d-b2c5f32feb02" points="43.95 27.47 49.45 27.47 49.45 21.97 43.95 21.97 38.46 21.97 38.46 27.47 43.95 27.47"/>
        <rect class="uuid-b1250285-aac9-40b1-893d-b2c5f32feb02" x="32.96" y="16.48" width="5.5" height="5.49"/>
        <polygon class="uuid-b1250285-aac9-40b1-893d-b2c5f32feb02" points="27.47 60.44 27.47 65.93 32.96 65.93 38.46 65.93 38.46 60.44 32.96 60.44 27.47 60.44"/>
      </g>
      <rect class="uuid-13a8360c-19e2-4f47-ae96-70b645d6bb32" x="10.99" y="21.97" width="5.49" height="5.5"/>
      <polygon class="uuid-6159b9e8-3a1b-43bd-bd51-644a03a734b1" points="38.46 27.47 38.46 21.97 32.96 21.97 32.96 27.47 27.47 27.47 27.47 21.97 32.96 21.97 32.96 16.48 27.47 16.48 21.97 16.48 21.97 21.97 16.48 21.97 16.48 27.47 10.99 27.47 10.99 32.96 10.99 38.46 16.48 38.46 16.48 43.95 10.99 43.95 10.99 49.45 5.49 49.45 5.49 54.94 10.99 54.94 10.99 60.44 16.48 60.44 21.97 60.44 21.97 65.93 27.47 65.93 27.47 60.44 27.47 54.94 32.96 54.94 38.46 54.94 38.46 49.45 38.46 43.95 32.96 43.95 27.47 43.95 27.47 38.46 27.47 32.96 32.96 32.96 32.96 38.46 38.46 38.46 43.95 38.46 43.95 32.96 43.95 27.47 38.46 27.47"/>
      <rect class="uuid-13a8360c-19e2-4f47-ae96-70b645d6bb32" x="5.49" y="43.95" width="5.5" height="5.5"/>
      <rect class="uuid-13a8360c-19e2-4f47-ae96-70b645d6bb32" x="5.49" y="38.46" width="5.5" height="5.49"/>
      <rect class="uuid-13a8360c-19e2-4f47-ae96-70b645d6bb32" x="5.49" y="32.96" width="5.5" height="5.5"/>
      <rect class="uuid-13a8360c-19e2-4f47-ae96-70b645d6bb32" x="5.49" y="27.47" width="5.5" height="5.49"/>
      <g>
        <polygon class="uuid-00c21798-107b-48a9-a26f-8df9e5f29ae3" points="54.94 27.47 54.94 32.96 54.94 38.46 54.94 43.95 54.94 49.45 54.94 54.94 60.44 54.94 60.44 49.45 60.44 43.95 60.44 38.46 60.44 32.96 60.44 27.47 54.94 27.47"/>
        <rect class="uuid-00c21798-107b-48a9-a26f-8df9e5f29ae3" x="49.45" y="54.94" width="5.49" height="5.5"/>
        <rect class="uuid-00c21798-107b-48a9-a26f-8df9e5f29ae3" x="49.45" y="21.97" width="5.49" height="5.5"/>
        <rect class="uuid-00c21798-107b-48a9-a26f-8df9e5f29ae3" x="43.95" y="38.46" width="5.5" height="5.49"/>
        <polygon class="uuid-00c21798-107b-48a9-a26f-8df9e5f29ae3" points="38.46 60.44 38.46 65.93 43.95 65.93 43.95 71.43 49.45 71.43 49.45 65.93 49.45 60.44 43.95 60.44 38.46 60.44"/>
        <polygon class="uuid-00c21798-107b-48a9-a26f-8df9e5f29ae3" points="43.95 21.97 49.45 21.97 49.45 16.48 43.95 16.48 38.46 16.48 38.46 21.97 43.95 21.97"/>
        <polygon class="uuid-00c21798-107b-48a9-a26f-8df9e5f29ae3" points="27.47 65.93 21.97 65.93 21.97 71.43 27.47 71.43 32.96 71.43 38.46 71.43 38.46 65.93 32.96 65.93 27.47 65.93"/>
        <rect class="uuid-00c21798-107b-48a9-a26f-8df9e5f29ae3" x="27.47" y="54.94" width="5.49" height="5.5"/>
        <polygon class="uuid-00c21798-107b-48a9-a26f-8df9e5f29ae3" points="32.96 32.96 27.47 32.96 27.47 38.46 27.47 43.95 32.96 43.95 38.46 43.95 38.46 38.46 32.96 38.46 32.96 32.96"/>
        <rect class="uuid-00c21798-107b-48a9-a26f-8df9e5f29ae3" x="27.47" y="21.97" width="5.49" height="5.5"/>
        <polygon class="uuid-00c21798-107b-48a9-a26f-8df9e5f29ae3" points="32.96 16.48 38.46 16.48 38.46 10.99 32.96 10.99 32.96 5.49 38.46 5.49 43.95 5.49 43.95 0 38.46 0 32.96 0 27.47 0 21.97 0 16.48 0 16.48 5.49 21.97 5.49 27.47 5.49 27.47 10.99 21.97 10.99 21.97 16.48 27.47 16.48 32.96 16.48"/>
        <polygon class="uuid-00c21798-107b-48a9-a26f-8df9e5f29ae3" points="16.48 60.44 10.99 60.44 10.99 65.93 10.99 71.43 16.48 71.43 16.48 65.93 21.97 65.93 21.97 60.44 16.48 60.44"/>
        <polygon class="uuid-00c21798-107b-48a9-a26f-8df9e5f29ae3" points="21.97 21.97 21.97 16.48 16.48 16.48 10.99 16.48 10.99 21.97 16.48 21.97 21.97 21.97"/>
        <rect class="uuid-00c21798-107b-48a9-a26f-8df9e5f29ae3" x="10.99" y="38.46" width="5.49" height="5.49"/>
        <rect class="uuid-00c21798-107b-48a9-a26f-8df9e5f29ae3" x="5.49" y="54.94" width="5.5" height="5.5"/>
        <rect class="uuid-00c21798-107b-48a9-a26f-8df9e5f29ae3" x="5.49" y="21.97" width="5.5" height="5.5"/>
        <polygon class="uuid-00c21798-107b-48a9-a26f-8df9e5f29ae3" points="5.49 43.95 5.49 38.46 5.49 32.96 5.49 27.47 0 27.47 0 32.96 0 38.46 0 43.95 0 49.45 0 54.94 5.49 54.94 5.49 49.45 5.49 43.95"/>
      </g>
    </g>
  </g>
</svg>