<?xml version="1.0" encoding="UTF-8"?>
<svg id="uuid-26d0df03-bf28-4a45-b008-6f8a6a8b8d9d" data-name="Capa 2" xmlns="http://www.w3.org/2000/svg" viewBox="0 0 76.92 65.93">
  <defs>
    <style>
      .uuid-7f16a0f7-26e2-470a-aa7e-f83a425c3167 {
        fill: #f42a5a;
      }

      .uuid-726096b3-8842-409e-ad66-cbaad3f4615f {
        fill: #ffabb1;
      }

      .uuid-8bca2af6-843a-4298-b3a5-b0c5605dda26 {
        fill: #ff6a85;
      }

      .uuid-29cdb1a9-23ba-47f1-af02-071158b55529 {
        fill: #473d61;
      }
    </style>
  </defs>
  <g id="uuid-44cdaa76-69f1-497e-a1e8-914d5d2b94cc" data-name="OBJECTS">
    <g>
      <g>
        <polygon class="uuid-7f16a0f7-26e2-470a-aa7e-f83a425c3167" points="65.93 16.48 65.93 10.99 60.44 10.99 60.44 16.48 60.44 21.97 54.94 21.97 54.94 27.47 60.44 27.47 60.44 32.96 54.94 32.96 49.45 32.96 49.45 38.46 43.95 38.46 43.95 43.95 43.95 49.45 38.46 49.45 38.46 54.94 32.96 54.94 32.96 60.44 38.46 60.44 43.95 60.44 43.95 54.94 49.45 54.94 49.45 49.45 54.94 49.45 54.94 43.95 60.44 43.95 60.44 38.46 65.93 38.46 65.93 32.96 71.42 32.96 71.42 27.47 71.42 21.97 71.42 16.48 65.93 16.48"/>
        <rect class="uuid-7f16a0f7-26e2-470a-aa7e-f83a425c3167" x="54.94" y="5.49" width="5.5" height="5.5"/>
        <rect class="uuid-7f16a0f7-26e2-470a-aa7e-f83a425c3167" x="49.45" y="16.48" width="5.49" height="5.49"/>
        <rect class="uuid-7f16a0f7-26e2-470a-aa7e-f83a425c3167" x="38.46" y="27.47" width="5.49" height="5.49"/>
        <rect class="uuid-7f16a0f7-26e2-470a-aa7e-f83a425c3167" x="32.96" y="43.95" width="5.5" height="5.5"/>
      </g>
      <rect class="uuid-726096b3-8842-409e-ad66-cbaad3f4615f" x="16.48" y="21.97" width="5.49" height="5.5"/>
      <rect class="uuid-726096b3-8842-409e-ad66-cbaad3f4615f" x="16.48" y="10.99" width="5.49" height="5.49"/>
      <rect class="uuid-726096b3-8842-409e-ad66-cbaad3f4615f" x="10.98" y="16.48" width="5.5" height="5.49"/>
      <g>
        <path class="uuid-8bca2af6-843a-4298-b3a5-b0c5605dda26" d="M54.94,10.99V5.49h-10.99v5.5h-10.99V5.49H16.48v5.5h5.49v5.49h-5.49v5.49h5.49v5.5h-5.49v-5.5h-5.5v-5.49H5.49v16.48h5.49v5.5h5.5v5.49h5.49v5.5h5.5v5.49h10.99v-5.49h-5.5v-5.5h5.5v5.5h5.49v-10.99h5.5v-5.5h10.99v-5.49h-5.5v-5.5h-5.49v-5.49h5.49v5.49h5.5V10.99h-5.5Zm-16.48,21.97v-5.49h5.49v5.49h-5.49Z"/>
        <rect class="uuid-8bca2af6-843a-4298-b3a5-b0c5605dda26" x="10.98" y="10.99" width="5.5" height="5.49"/>
      </g>
      <g>
        <polygon class="uuid-29cdb1a9-23ba-47f1-af02-071158b55529" points="71.42 16.48 71.42 21.97 71.42 27.47 71.42 32.96 76.92 32.96 76.92 27.47 76.92 21.97 76.92 16.48 71.42 16.48"/>
        <rect class="uuid-29cdb1a9-23ba-47f1-af02-071158b55529" x="65.93" y="32.96" width="5.49" height="5.5"/>
        <rect class="uuid-29cdb1a9-23ba-47f1-af02-071158b55529" x="65.93" y="10.99" width="5.49" height="5.49"/>
        <rect class="uuid-29cdb1a9-23ba-47f1-af02-071158b55529" x="60.44" y="38.46" width="5.49" height="5.49"/>
        <rect class="uuid-29cdb1a9-23ba-47f1-af02-071158b55529" x="60.44" y="5.49" width="5.49" height="5.5"/>
        <rect class="uuid-29cdb1a9-23ba-47f1-af02-071158b55529" x="54.94" y="43.95" width="5.5" height="5.5"/>
        <rect class="uuid-29cdb1a9-23ba-47f1-af02-071158b55529" x="49.45" y="49.45" width="5.49" height="5.49"/>
        <polygon class="uuid-29cdb1a9-23ba-47f1-af02-071158b55529" points="54.94 5.49 60.44 5.49 60.44 0 54.94 0 49.45 0 43.95 0 43.95 5.49 49.45 5.49 54.94 5.49"/>
        <rect class="uuid-29cdb1a9-23ba-47f1-af02-071158b55529" x="43.95" y="54.94" width="5.5" height="5.5"/>
        <polygon class="uuid-29cdb1a9-23ba-47f1-af02-071158b55529" points="32.96 60.44 32.96 65.93 38.46 65.93 43.95 65.93 43.95 60.44 38.46 60.44 32.96 60.44"/>
        <polygon class="uuid-29cdb1a9-23ba-47f1-af02-071158b55529" points="38.46 10.99 43.95 10.99 43.95 5.49 38.46 5.49 32.96 5.49 32.96 10.99 38.46 10.99"/>
        <rect class="uuid-29cdb1a9-23ba-47f1-af02-071158b55529" x="27.47" y="54.94" width="5.49" height="5.5"/>
        <rect class="uuid-29cdb1a9-23ba-47f1-af02-071158b55529" x="21.97" y="49.45" width="5.5" height="5.49"/>
        <polygon class="uuid-29cdb1a9-23ba-47f1-af02-071158b55529" points="27.47 5.49 32.96 5.49 32.96 0 27.47 0 21.97 0 16.48 0 16.48 5.49 21.97 5.49 27.47 5.49"/>
        <rect class="uuid-29cdb1a9-23ba-47f1-af02-071158b55529" x="16.48" y="43.95" width="5.49" height="5.5"/>
        <rect class="uuid-29cdb1a9-23ba-47f1-af02-071158b55529" x="10.98" y="38.46" width="5.5" height="5.49"/>
        <rect class="uuid-29cdb1a9-23ba-47f1-af02-071158b55529" x="10.98" y="5.49" width="5.5" height="5.5"/>
        <rect class="uuid-29cdb1a9-23ba-47f1-af02-071158b55529" x="5.49" y="32.96" width="5.49" height="5.5"/>
        <rect class="uuid-29cdb1a9-23ba-47f1-af02-071158b55529" x="5.49" y="10.99" width="5.49" height="5.49"/>
        <polygon class="uuid-29cdb1a9-23ba-47f1-af02-071158b55529" points="5.49 21.97 5.49 16.48 0 16.48 0 21.97 0 27.47 0 32.96 5.49 32.96 5.49 27.47 5.49 21.97"/>
      </g>
    </g>
  </g>
</svg>